<mxfile host="app.diagrams.net" modified="2022-06-06T20:16:04.580Z" agent="5.0 (Windows NT 10.0; Win64; x64) AppleWebKit/537.36 (KHTML, like Gecko) Chrome/102.0.5005.63 Safari/537.36" etag="2M5pZ3yhTQhWFFTUcrGN" version="19.0.1" type="github">
  <diagram id="sc7eF7NyWI0LZNZIMm0Y" name="Page-1">
    <mxGraphModel dx="1146" dy="608" grid="1" gridSize="10" guides="1" tooltips="1" connect="1" arrows="0" fold="1" page="1" pageScale="1" pageWidth="850" pageHeight="1100" math="0" shadow="0">
      <root>
        <mxCell id="0" />
        <mxCell id="1" parent="0" />
        <mxCell id="GkxkM57QEwcgZs1372AV-10" value="" style="ellipse;whiteSpace=wrap;html=1;aspect=fixed;allowArrows=0;rounded=0;" vertex="1" parent="1">
          <mxGeometry x="50" y="10" width="20" height="20" as="geometry" />
        </mxCell>
        <mxCell id="GkxkM57QEwcgZs1372AV-16" value="" style="ellipse;whiteSpace=wrap;html=1;aspect=fixed;rounded=0;" vertex="1" parent="1">
          <mxGeometry x="50" y="50" width="20" height="20" as="geometry" />
        </mxCell>
        <mxCell id="GkxkM57QEwcgZs1372AV-31" value="" style="ellipse;whiteSpace=wrap;html=1;aspect=fixed;fillColor=#000000;strokeWidth=0;rounded=0;" vertex="1" parent="1">
          <mxGeometry x="58" y="328" width="4" height="4" as="geometry" />
        </mxCell>
        <mxCell id="GkxkM57QEwcgZs1372AV-32" value="" style="ellipse;whiteSpace=wrap;html=1;aspect=fixed;fillColor=#000000;strokeWidth=0;rounded=0;" vertex="1" parent="1">
          <mxGeometry x="58" y="338" width="4" height="4" as="geometry" />
        </mxCell>
        <mxCell id="GkxkM57QEwcgZs1372AV-33" value="" style="ellipse;whiteSpace=wrap;html=1;aspect=fixed;fillColor=#000000;strokeWidth=0;rounded=0;" vertex="1" parent="1">
          <mxGeometry x="58" y="348" width="4" height="4" as="geometry" />
        </mxCell>
        <mxCell id="GkxkM57QEwcgZs1372AV-35" value="" style="ellipse;whiteSpace=wrap;html=1;aspect=fixed;rounded=0;" vertex="1" parent="1">
          <mxGeometry x="290" y="90" width="20" height="20" as="geometry" />
        </mxCell>
        <mxCell id="GkxkM57QEwcgZs1372AV-36" value="" style="ellipse;whiteSpace=wrap;html=1;aspect=fixed;rounded=0;" vertex="1" parent="1">
          <mxGeometry x="290" y="130" width="20" height="20" as="geometry" />
        </mxCell>
        <mxCell id="GkxkM57QEwcgZs1372AV-37" value="" style="ellipse;whiteSpace=wrap;html=1;aspect=fixed;rounded=0;" vertex="1" parent="1">
          <mxGeometry x="290" y="170" width="20" height="20" as="geometry" />
        </mxCell>
        <mxCell id="GkxkM57QEwcgZs1372AV-38" value="" style="ellipse;whiteSpace=wrap;html=1;aspect=fixed;rounded=0;" vertex="1" parent="1">
          <mxGeometry x="290" y="210" width="20" height="20" as="geometry" />
        </mxCell>
        <mxCell id="GkxkM57QEwcgZs1372AV-39" value="" style="ellipse;whiteSpace=wrap;html=1;aspect=fixed;rounded=0;" vertex="1" parent="1">
          <mxGeometry x="290" y="250" width="20" height="20" as="geometry" />
        </mxCell>
        <mxCell id="GkxkM57QEwcgZs1372AV-40" value="" style="ellipse;whiteSpace=wrap;html=1;aspect=fixed;rounded=0;" vertex="1" parent="1">
          <mxGeometry x="290" y="290" width="20" height="20" as="geometry" />
        </mxCell>
        <mxCell id="GkxkM57QEwcgZs1372AV-41" value="" style="ellipse;whiteSpace=wrap;html=1;aspect=fixed;rounded=0;" vertex="1" parent="1">
          <mxGeometry x="290" y="370" width="20" height="20" as="geometry" />
        </mxCell>
        <mxCell id="GkxkM57QEwcgZs1372AV-42" value="" style="ellipse;whiteSpace=wrap;html=1;aspect=fixed;rounded=0;" vertex="1" parent="1">
          <mxGeometry x="290" y="410" width="20" height="20" as="geometry" />
        </mxCell>
        <mxCell id="GkxkM57QEwcgZs1372AV-43" value="" style="ellipse;whiteSpace=wrap;html=1;aspect=fixed;rounded=0;" vertex="1" parent="1">
          <mxGeometry x="290" y="450" width="20" height="20" as="geometry" />
        </mxCell>
        <mxCell id="GkxkM57QEwcgZs1372AV-44" value="" style="ellipse;whiteSpace=wrap;html=1;aspect=fixed;rounded=0;" vertex="1" parent="1">
          <mxGeometry x="290" y="490" width="20" height="20" as="geometry" />
        </mxCell>
        <mxCell id="GkxkM57QEwcgZs1372AV-45" value="" style="ellipse;whiteSpace=wrap;html=1;aspect=fixed;rounded=0;" vertex="1" parent="1">
          <mxGeometry x="290" y="530" width="20" height="20" as="geometry" />
        </mxCell>
        <mxCell id="GkxkM57QEwcgZs1372AV-46" value="" style="ellipse;whiteSpace=wrap;html=1;aspect=fixed;rounded=0;" vertex="1" parent="1">
          <mxGeometry x="290" y="570" width="20" height="20" as="geometry" />
        </mxCell>
        <mxCell id="GkxkM57QEwcgZs1372AV-47" value="" style="ellipse;whiteSpace=wrap;html=1;aspect=fixed;fillColor=#000000;strokeWidth=0;rounded=0;" vertex="1" parent="1">
          <mxGeometry x="298" y="328" width="4" height="4" as="geometry" />
        </mxCell>
        <mxCell id="GkxkM57QEwcgZs1372AV-48" value="" style="ellipse;whiteSpace=wrap;html=1;aspect=fixed;fillColor=#000000;strokeWidth=0;rounded=0;" vertex="1" parent="1">
          <mxGeometry x="298" y="338" width="4" height="4" as="geometry" />
        </mxCell>
        <mxCell id="GkxkM57QEwcgZs1372AV-49" value="" style="ellipse;whiteSpace=wrap;html=1;aspect=fixed;fillColor=#000000;strokeWidth=0;rounded=0;" vertex="1" parent="1">
          <mxGeometry x="298" y="348" width="4" height="4" as="geometry" />
        </mxCell>
        <mxCell id="GkxkM57QEwcgZs1372AV-59" value="" style="ellipse;whiteSpace=wrap;html=1;aspect=fixed;rounded=0;" vertex="1" parent="1">
          <mxGeometry x="480" y="210" width="20" height="20" as="geometry" />
        </mxCell>
        <mxCell id="GkxkM57QEwcgZs1372AV-60" value="" style="ellipse;whiteSpace=wrap;html=1;aspect=fixed;rounded=0;" vertex="1" parent="1">
          <mxGeometry x="480" y="250" width="20" height="20" as="geometry" />
        </mxCell>
        <mxCell id="GkxkM57QEwcgZs1372AV-61" value="" style="ellipse;whiteSpace=wrap;html=1;aspect=fixed;rounded=0;" vertex="1" parent="1">
          <mxGeometry x="480" y="290" width="20" height="20" as="geometry" />
        </mxCell>
        <mxCell id="GkxkM57QEwcgZs1372AV-62" value="" style="ellipse;whiteSpace=wrap;html=1;aspect=fixed;rounded=0;" vertex="1" parent="1">
          <mxGeometry x="480" y="370" width="20" height="20" as="geometry" />
        </mxCell>
        <mxCell id="GkxkM57QEwcgZs1372AV-63" value="" style="ellipse;whiteSpace=wrap;html=1;aspect=fixed;rounded=0;" vertex="1" parent="1">
          <mxGeometry x="480" y="410" width="20" height="20" as="geometry" />
        </mxCell>
        <mxCell id="GkxkM57QEwcgZs1372AV-64" value="" style="ellipse;whiteSpace=wrap;html=1;aspect=fixed;rounded=0;" vertex="1" parent="1">
          <mxGeometry x="480" y="450" width="20" height="20" as="geometry" />
        </mxCell>
        <mxCell id="GkxkM57QEwcgZs1372AV-65" value="" style="ellipse;whiteSpace=wrap;html=1;aspect=fixed;fillColor=#000000;strokeWidth=0;rounded=0;" vertex="1" parent="1">
          <mxGeometry x="488" y="326" width="4" height="4" as="geometry" />
        </mxCell>
        <mxCell id="GkxkM57QEwcgZs1372AV-66" value="" style="ellipse;whiteSpace=wrap;html=1;aspect=fixed;fillColor=#000000;strokeWidth=0;rounded=0;" vertex="1" parent="1">
          <mxGeometry x="488" y="336" width="4" height="4" as="geometry" />
        </mxCell>
        <mxCell id="GkxkM57QEwcgZs1372AV-67" value="" style="ellipse;whiteSpace=wrap;html=1;aspect=fixed;fillColor=#000000;strokeWidth=0;rounded=0;" vertex="1" parent="1">
          <mxGeometry x="488" y="346" width="4" height="4" as="geometry" />
        </mxCell>
        <mxCell id="GkxkM57QEwcgZs1372AV-68" value="" style="endArrow=none;html=1;entryX=1;entryY=0.5;entryDx=0;entryDy=0;exitX=0;exitY=0.5;exitDx=0;exitDy=0;strokeWidth=1;rounded=0;strokeColor=#525252;" edge="1" parent="1" source="GkxkM57QEwcgZs1372AV-35" target="GkxkM57QEwcgZs1372AV-10">
          <mxGeometry width="50" height="50" relative="1" as="geometry">
            <mxPoint x="240" y="400" as="sourcePoint" />
            <mxPoint x="290" y="350" as="targetPoint" />
          </mxGeometry>
        </mxCell>
        <mxCell id="GkxkM57QEwcgZs1372AV-70" value="" style="endArrow=none;html=1;entryX=1;entryY=0.5;entryDx=0;entryDy=0;exitX=0;exitY=0.5;exitDx=0;exitDy=0;strokeWidth=1;rounded=0;strokeColor=#525252;" edge="1" parent="1" source="GkxkM57QEwcgZs1372AV-36" target="GkxkM57QEwcgZs1372AV-10">
          <mxGeometry width="50" height="50" relative="1" as="geometry">
            <mxPoint x="229.99999999998363" y="122" as="sourcePoint" />
            <mxPoint x="90" y="42" as="targetPoint" />
          </mxGeometry>
        </mxCell>
        <mxCell id="GkxkM57QEwcgZs1372AV-74" value="" style="endArrow=none;html=1;entryX=1;entryY=0.5;entryDx=0;entryDy=0;exitX=0;exitY=0.5;exitDx=0;exitDy=0;strokeWidth=1;rounded=0;strokeColor=#525252;" edge="1" parent="1" source="GkxkM57QEwcgZs1372AV-37" target="GkxkM57QEwcgZs1372AV-10">
          <mxGeometry width="50" height="50" relative="1" as="geometry">
            <mxPoint x="220" y="152" as="sourcePoint" />
            <mxPoint x="80" y="32" as="targetPoint" />
          </mxGeometry>
        </mxCell>
        <mxCell id="GkxkM57QEwcgZs1372AV-75" value="" style="endArrow=none;html=1;entryX=1;entryY=0.5;entryDx=0;entryDy=0;exitX=0;exitY=0.5;exitDx=0;exitDy=0;strokeWidth=1;rounded=0;strokeColor=#525252;" edge="1" parent="1" source="GkxkM57QEwcgZs1372AV-38" target="GkxkM57QEwcgZs1372AV-10">
          <mxGeometry width="50" height="50" relative="1" as="geometry">
            <mxPoint x="230" y="162" as="sourcePoint" />
            <mxPoint x="90" y="42" as="targetPoint" />
          </mxGeometry>
        </mxCell>
        <mxCell id="GkxkM57QEwcgZs1372AV-76" value="" style="endArrow=none;html=1;entryX=1;entryY=0.5;entryDx=0;entryDy=0;exitX=0;exitY=0.5;exitDx=0;exitDy=0;strokeWidth=1;rounded=0;strokeColor=#525252;" edge="1" parent="1" source="GkxkM57QEwcgZs1372AV-39" target="GkxkM57QEwcgZs1372AV-10">
          <mxGeometry width="50" height="50" relative="1" as="geometry">
            <mxPoint x="240" y="172" as="sourcePoint" />
            <mxPoint x="100" y="52" as="targetPoint" />
          </mxGeometry>
        </mxCell>
        <mxCell id="GkxkM57QEwcgZs1372AV-77" value="" style="endArrow=none;html=1;exitX=0;exitY=0.5;exitDx=0;exitDy=0;strokeWidth=1;rounded=0;strokeColor=#525252;entryX=1;entryY=0.5;entryDx=0;entryDy=0;" edge="1" parent="1" source="GkxkM57QEwcgZs1372AV-40" target="GkxkM57QEwcgZs1372AV-10">
          <mxGeometry width="50" height="50" relative="1" as="geometry">
            <mxPoint x="250" y="182" as="sourcePoint" />
            <mxPoint x="90" y="20" as="targetPoint" />
          </mxGeometry>
        </mxCell>
        <mxCell id="GkxkM57QEwcgZs1372AV-78" value="" style="endArrow=none;html=1;entryX=1;entryY=0.5;entryDx=0;entryDy=0;exitX=0;exitY=0.5;exitDx=0;exitDy=0;strokeWidth=1;rounded=0;strokeColor=#525252;" edge="1" parent="1" source="GkxkM57QEwcgZs1372AV-41" target="GkxkM57QEwcgZs1372AV-10">
          <mxGeometry width="50" height="50" relative="1" as="geometry">
            <mxPoint x="260" y="192" as="sourcePoint" />
            <mxPoint x="120" y="72" as="targetPoint" />
          </mxGeometry>
        </mxCell>
        <mxCell id="GkxkM57QEwcgZs1372AV-79" value="" style="endArrow=none;html=1;entryX=1;entryY=0.5;entryDx=0;entryDy=0;exitX=0;exitY=0.5;exitDx=0;exitDy=0;strokeWidth=1;rounded=0;strokeColor=#525252;" edge="1" parent="1" source="GkxkM57QEwcgZs1372AV-42" target="GkxkM57QEwcgZs1372AV-10">
          <mxGeometry width="50" height="50" relative="1" as="geometry">
            <mxPoint x="270" y="202" as="sourcePoint" />
            <mxPoint x="130" y="82" as="targetPoint" />
          </mxGeometry>
        </mxCell>
        <mxCell id="GkxkM57QEwcgZs1372AV-80" value="" style="endArrow=none;html=1;entryX=1;entryY=0.5;entryDx=0;entryDy=0;exitX=0;exitY=0.5;exitDx=0;exitDy=0;strokeWidth=1;rounded=0;strokeColor=#525252;" edge="1" parent="1" source="GkxkM57QEwcgZs1372AV-43" target="GkxkM57QEwcgZs1372AV-10">
          <mxGeometry width="50" height="50" relative="1" as="geometry">
            <mxPoint x="280" y="212" as="sourcePoint" />
            <mxPoint x="140" y="92" as="targetPoint" />
          </mxGeometry>
        </mxCell>
        <mxCell id="GkxkM57QEwcgZs1372AV-81" value="" style="endArrow=none;html=1;entryX=1;entryY=0.5;entryDx=0;entryDy=0;exitX=0;exitY=0.5;exitDx=0;exitDy=0;strokeWidth=1;rounded=0;strokeColor=#525252;" edge="1" parent="1" source="GkxkM57QEwcgZs1372AV-44" target="GkxkM57QEwcgZs1372AV-10">
          <mxGeometry width="50" height="50" relative="1" as="geometry">
            <mxPoint x="290" y="222" as="sourcePoint" />
            <mxPoint x="150" y="102" as="targetPoint" />
          </mxGeometry>
        </mxCell>
        <mxCell id="GkxkM57QEwcgZs1372AV-82" value="" style="endArrow=none;html=1;entryX=1;entryY=0.5;entryDx=0;entryDy=0;exitX=0;exitY=0.5;exitDx=0;exitDy=0;strokeWidth=1;rounded=0;strokeColor=#525252;" edge="1" parent="1" source="GkxkM57QEwcgZs1372AV-45" target="GkxkM57QEwcgZs1372AV-10">
          <mxGeometry width="50" height="50" relative="1" as="geometry">
            <mxPoint x="300" y="232" as="sourcePoint" />
            <mxPoint x="160" y="112" as="targetPoint" />
          </mxGeometry>
        </mxCell>
        <mxCell id="GkxkM57QEwcgZs1372AV-83" value="" style="endArrow=none;html=1;entryX=1;entryY=0.5;entryDx=0;entryDy=0;exitX=0;exitY=0.5;exitDx=0;exitDy=0;strokeWidth=1;rounded=0;strokeColor=#525252;" edge="1" parent="1" source="GkxkM57QEwcgZs1372AV-46" target="GkxkM57QEwcgZs1372AV-10">
          <mxGeometry width="50" height="50" relative="1" as="geometry">
            <mxPoint x="310" y="242" as="sourcePoint" />
            <mxPoint x="170" y="122" as="targetPoint" />
          </mxGeometry>
        </mxCell>
        <mxCell id="GkxkM57QEwcgZs1372AV-84" value="" style="endArrow=none;html=1;entryX=1;entryY=0.5;entryDx=0;entryDy=0;strokeWidth=1;rounded=0;strokeColor=#525252;exitX=0;exitY=0.5;exitDx=0;exitDy=0;" edge="1" parent="1" source="GkxkM57QEwcgZs1372AV-36" target="GkxkM57QEwcgZs1372AV-16">
          <mxGeometry width="50" height="50" relative="1" as="geometry">
            <mxPoint x="190" y="150" as="sourcePoint" />
            <mxPoint x="70" y="64" as="targetPoint" />
          </mxGeometry>
        </mxCell>
        <mxCell id="GkxkM57QEwcgZs1372AV-85" value="" style="endArrow=none;html=1;entryX=1;entryY=0.5;entryDx=0;entryDy=0;strokeWidth=1;rounded=0;strokeColor=#525252;exitX=0;exitY=0.5;exitDx=0;exitDy=0;" edge="1" parent="1" source="GkxkM57QEwcgZs1372AV-37" target="GkxkM57QEwcgZs1372AV-16">
          <mxGeometry width="50" height="50" relative="1" as="geometry">
            <mxPoint x="210" y="180" as="sourcePoint" />
            <mxPoint x="70" y="64" as="targetPoint" />
          </mxGeometry>
        </mxCell>
        <mxCell id="GkxkM57QEwcgZs1372AV-86" value="" style="endArrow=none;html=1;entryX=1;entryY=0.5;entryDx=0;entryDy=0;exitX=0;exitY=0.5;exitDx=0;exitDy=0;strokeWidth=1;rounded=0;strokeColor=#525252;" edge="1" parent="1" source="GkxkM57QEwcgZs1372AV-38" target="GkxkM57QEwcgZs1372AV-16">
          <mxGeometry width="50" height="50" relative="1" as="geometry">
            <mxPoint x="210" y="224" as="sourcePoint" />
            <mxPoint x="70" y="64" as="targetPoint" />
          </mxGeometry>
        </mxCell>
        <mxCell id="GkxkM57QEwcgZs1372AV-87" value="" style="endArrow=none;html=1;entryX=1;entryY=0.5;entryDx=0;entryDy=0;exitX=0;exitY=0.5;exitDx=0;exitDy=0;strokeWidth=1;rounded=0;strokeColor=#525252;" edge="1" parent="1" source="GkxkM57QEwcgZs1372AV-39" target="GkxkM57QEwcgZs1372AV-16">
          <mxGeometry width="50" height="50" relative="1" as="geometry">
            <mxPoint x="210" y="264" as="sourcePoint" />
            <mxPoint x="70" y="64" as="targetPoint" />
          </mxGeometry>
        </mxCell>
        <mxCell id="GkxkM57QEwcgZs1372AV-88" value="" style="endArrow=none;html=1;entryX=1;entryY=0.5;entryDx=0;entryDy=0;strokeWidth=1;rounded=0;strokeColor=#525252;exitX=0;exitY=0.5;exitDx=0;exitDy=0;" edge="1" parent="1" source="GkxkM57QEwcgZs1372AV-40" target="GkxkM57QEwcgZs1372AV-16">
          <mxGeometry width="50" height="50" relative="1" as="geometry">
            <mxPoint x="210" y="304" as="sourcePoint" />
            <mxPoint x="70" y="64" as="targetPoint" />
          </mxGeometry>
        </mxCell>
        <mxCell id="GkxkM57QEwcgZs1372AV-90" value="" style="endArrow=none;html=1;entryX=1;entryY=0.5;entryDx=0;entryDy=0;exitX=0;exitY=0.5;exitDx=0;exitDy=0;strokeWidth=1;rounded=0;strokeColor=#525252;" edge="1" parent="1" source="GkxkM57QEwcgZs1372AV-41" target="GkxkM57QEwcgZs1372AV-16">
          <mxGeometry width="50" height="50" relative="1" as="geometry">
            <mxPoint x="210" y="444" as="sourcePoint" />
            <mxPoint x="70" y="64" as="targetPoint" />
          </mxGeometry>
        </mxCell>
        <mxCell id="GkxkM57QEwcgZs1372AV-91" value="" style="endArrow=none;html=1;entryX=1;entryY=0.5;entryDx=0;entryDy=0;exitX=0;exitY=0.5;exitDx=0;exitDy=0;strokeWidth=1;rounded=0;strokeColor=#525252;" edge="1" parent="1" source="GkxkM57QEwcgZs1372AV-42" target="GkxkM57QEwcgZs1372AV-16">
          <mxGeometry width="50" height="50" relative="1" as="geometry">
            <mxPoint x="210" y="484" as="sourcePoint" />
            <mxPoint x="70" y="64" as="targetPoint" />
          </mxGeometry>
        </mxCell>
        <mxCell id="GkxkM57QEwcgZs1372AV-92" value="" style="endArrow=none;html=1;entryX=1;entryY=0.5;entryDx=0;entryDy=0;exitX=0;exitY=0.5;exitDx=0;exitDy=0;strokeWidth=1;rounded=0;strokeColor=#525252;" edge="1" parent="1" source="GkxkM57QEwcgZs1372AV-43" target="GkxkM57QEwcgZs1372AV-16">
          <mxGeometry width="50" height="50" relative="1" as="geometry">
            <mxPoint x="210" y="524" as="sourcePoint" />
            <mxPoint x="70" y="64" as="targetPoint" />
          </mxGeometry>
        </mxCell>
        <mxCell id="GkxkM57QEwcgZs1372AV-93" value="" style="endArrow=none;html=1;entryX=1;entryY=0.5;entryDx=0;entryDy=0;exitX=0;exitY=0.5;exitDx=0;exitDy=0;strokeWidth=1;rounded=0;strokeColor=#525252;" edge="1" parent="1" source="GkxkM57QEwcgZs1372AV-44" target="GkxkM57QEwcgZs1372AV-16">
          <mxGeometry width="50" height="50" relative="1" as="geometry">
            <mxPoint x="210" y="564" as="sourcePoint" />
            <mxPoint x="70" y="64" as="targetPoint" />
          </mxGeometry>
        </mxCell>
        <mxCell id="GkxkM57QEwcgZs1372AV-94" value="" style="endArrow=none;html=1;entryX=1;entryY=0.5;entryDx=0;entryDy=0;exitX=0;exitY=0.5;exitDx=0;exitDy=0;strokeWidth=1;rounded=0;strokeColor=#525252;" edge="1" parent="1" source="GkxkM57QEwcgZs1372AV-45" target="GkxkM57QEwcgZs1372AV-16">
          <mxGeometry width="50" height="50" relative="1" as="geometry">
            <mxPoint x="210" y="604" as="sourcePoint" />
            <mxPoint x="70" y="64" as="targetPoint" />
          </mxGeometry>
        </mxCell>
        <mxCell id="GkxkM57QEwcgZs1372AV-96" value="" style="endArrow=none;html=1;entryX=1;entryY=0.5;entryDx=0;entryDy=0;exitX=0;exitY=0.5;exitDx=0;exitDy=0;strokeWidth=1;rounded=0;strokeColor=#525252;" edge="1" parent="1" source="GkxkM57QEwcgZs1372AV-46" target="GkxkM57QEwcgZs1372AV-16">
          <mxGeometry width="50" height="50" relative="1" as="geometry">
            <mxPoint x="340.000000000015" y="532" as="sourcePoint" />
            <mxPoint x="80.0000000000075" y="32" as="targetPoint" />
          </mxGeometry>
        </mxCell>
        <mxCell id="GkxkM57QEwcgZs1372AV-123" value="" style="ellipse;whiteSpace=wrap;html=1;aspect=fixed;allowArrows=0;rounded=0;" vertex="1" parent="1">
          <mxGeometry x="50" y="90" width="20" height="20" as="geometry" />
        </mxCell>
        <mxCell id="GkxkM57QEwcgZs1372AV-124" value="" style="endArrow=none;html=1;entryX=1;entryY=0.5;entryDx=0;entryDy=0;exitX=0;exitY=0.5;exitDx=0;exitDy=0;strokeWidth=1;rounded=0;strokeColor=#525252;" edge="1" parent="1" target="GkxkM57QEwcgZs1372AV-123" source="GkxkM57QEwcgZs1372AV-37">
          <mxGeometry width="50" height="50" relative="1" as="geometry">
            <mxPoint x="330" y="102" as="sourcePoint" />
            <mxPoint x="290" y="430" as="targetPoint" />
          </mxGeometry>
        </mxCell>
        <mxCell id="GkxkM57QEwcgZs1372AV-125" value="" style="endArrow=none;html=1;entryX=1;entryY=0.5;entryDx=0;entryDy=0;exitX=0;exitY=0.5;exitDx=0;exitDy=0;strokeWidth=1;rounded=0;strokeColor=#525252;" edge="1" parent="1" target="GkxkM57QEwcgZs1372AV-123" source="GkxkM57QEwcgZs1372AV-38">
          <mxGeometry width="50" height="50" relative="1" as="geometry">
            <mxPoint x="330" y="142" as="sourcePoint" />
            <mxPoint x="90" y="122" as="targetPoint" />
          </mxGeometry>
        </mxCell>
        <mxCell id="GkxkM57QEwcgZs1372AV-126" value="" style="endArrow=none;html=1;entryX=1;entryY=0.5;entryDx=0;entryDy=0;exitX=0;exitY=0.5;exitDx=0;exitDy=0;strokeWidth=1;rounded=0;strokeColor=#525252;" edge="1" parent="1" target="GkxkM57QEwcgZs1372AV-123" source="GkxkM57QEwcgZs1372AV-39">
          <mxGeometry width="50" height="50" relative="1" as="geometry">
            <mxPoint x="330" y="182" as="sourcePoint" />
            <mxPoint x="80" y="112" as="targetPoint" />
          </mxGeometry>
        </mxCell>
        <mxCell id="GkxkM57QEwcgZs1372AV-127" value="" style="endArrow=none;html=1;entryX=1;entryY=0.5;entryDx=0;entryDy=0;exitX=0;exitY=0.5;exitDx=0;exitDy=0;strokeWidth=1;rounded=0;strokeColor=#525252;" edge="1" parent="1" target="GkxkM57QEwcgZs1372AV-123" source="GkxkM57QEwcgZs1372AV-40">
          <mxGeometry width="50" height="50" relative="1" as="geometry">
            <mxPoint x="330" y="222" as="sourcePoint" />
            <mxPoint x="90" y="122" as="targetPoint" />
          </mxGeometry>
        </mxCell>
        <mxCell id="GkxkM57QEwcgZs1372AV-128" value="" style="endArrow=none;html=1;entryX=1;entryY=0.5;entryDx=0;entryDy=0;exitX=0;exitY=0.5;exitDx=0;exitDy=0;strokeWidth=1;rounded=0;strokeColor=#525252;" edge="1" parent="1" target="GkxkM57QEwcgZs1372AV-123" source="GkxkM57QEwcgZs1372AV-41">
          <mxGeometry width="50" height="50" relative="1" as="geometry">
            <mxPoint x="330" y="262" as="sourcePoint" />
            <mxPoint x="100" y="132" as="targetPoint" />
          </mxGeometry>
        </mxCell>
        <mxCell id="GkxkM57QEwcgZs1372AV-129" value="" style="endArrow=none;html=1;exitX=0;exitY=0.5;exitDx=0;exitDy=0;strokeWidth=1;rounded=0;strokeColor=#525252;entryX=1;entryY=0.5;entryDx=0;entryDy=0;" edge="1" parent="1" target="GkxkM57QEwcgZs1372AV-123" source="GkxkM57QEwcgZs1372AV-42">
          <mxGeometry width="50" height="50" relative="1" as="geometry">
            <mxPoint x="330" y="302" as="sourcePoint" />
            <mxPoint x="90" y="100" as="targetPoint" />
          </mxGeometry>
        </mxCell>
        <mxCell id="GkxkM57QEwcgZs1372AV-130" value="" style="endArrow=none;html=1;entryX=1;entryY=0.5;entryDx=0;entryDy=0;exitX=0;exitY=0.5;exitDx=0;exitDy=0;strokeWidth=1;rounded=0;strokeColor=#525252;" edge="1" parent="1" target="GkxkM57QEwcgZs1372AV-123" source="GkxkM57QEwcgZs1372AV-44">
          <mxGeometry width="50" height="50" relative="1" as="geometry">
            <mxPoint x="330" y="402" as="sourcePoint" />
            <mxPoint x="120" y="152" as="targetPoint" />
          </mxGeometry>
        </mxCell>
        <mxCell id="GkxkM57QEwcgZs1372AV-131" value="" style="endArrow=none;html=1;entryX=1;entryY=0.5;entryDx=0;entryDy=0;exitX=0;exitY=0.5;exitDx=0;exitDy=0;strokeWidth=1;rounded=0;strokeColor=#525252;" edge="1" parent="1" target="GkxkM57QEwcgZs1372AV-123" source="GkxkM57QEwcgZs1372AV-45">
          <mxGeometry width="50" height="50" relative="1" as="geometry">
            <mxPoint x="330" y="442" as="sourcePoint" />
            <mxPoint x="130" y="162" as="targetPoint" />
          </mxGeometry>
        </mxCell>
        <mxCell id="GkxkM57QEwcgZs1372AV-132" value="" style="endArrow=none;html=1;entryX=1;entryY=0.5;entryDx=0;entryDy=0;exitX=0;exitY=0.5;exitDx=0;exitDy=0;strokeWidth=1;rounded=0;strokeColor=#525252;" edge="1" parent="1" target="GkxkM57QEwcgZs1372AV-123" source="GkxkM57QEwcgZs1372AV-46">
          <mxGeometry width="50" height="50" relative="1" as="geometry">
            <mxPoint x="330" y="482" as="sourcePoint" />
            <mxPoint x="140" y="172" as="targetPoint" />
          </mxGeometry>
        </mxCell>
        <mxCell id="GkxkM57QEwcgZs1372AV-133" value="" style="endArrow=none;html=1;entryX=1;entryY=0.5;entryDx=0;entryDy=0;exitX=0;exitY=0.5;exitDx=0;exitDy=0;strokeWidth=1;rounded=0;strokeColor=#525252;" edge="1" parent="1" target="GkxkM57QEwcgZs1372AV-123" source="GkxkM57QEwcgZs1372AV-36">
          <mxGeometry width="50" height="50" relative="1" as="geometry">
            <mxPoint x="330" y="522" as="sourcePoint" />
            <mxPoint x="150" y="182" as="targetPoint" />
          </mxGeometry>
        </mxCell>
        <mxCell id="GkxkM57QEwcgZs1372AV-134" value="" style="endArrow=none;html=1;entryX=1;entryY=0.5;entryDx=0;entryDy=0;exitX=0;exitY=0.5;exitDx=0;exitDy=0;strokeWidth=1;rounded=0;strokeColor=#525252;" edge="1" parent="1" target="GkxkM57QEwcgZs1372AV-123" source="GkxkM57QEwcgZs1372AV-35">
          <mxGeometry width="50" height="50" relative="1" as="geometry">
            <mxPoint x="330" y="562" as="sourcePoint" />
            <mxPoint x="160" y="192" as="targetPoint" />
          </mxGeometry>
        </mxCell>
        <mxCell id="GkxkM57QEwcgZs1372AV-135" value="" style="endArrow=none;html=1;entryX=1;entryY=0.5;entryDx=0;entryDy=0;exitX=0;exitY=0.5;exitDx=0;exitDy=0;strokeWidth=1;rounded=0;strokeColor=#525252;" edge="1" parent="1" target="GkxkM57QEwcgZs1372AV-123" source="GkxkM57QEwcgZs1372AV-43">
          <mxGeometry width="50" height="50" relative="1" as="geometry">
            <mxPoint x="330" y="602" as="sourcePoint" />
            <mxPoint x="170" y="202" as="targetPoint" />
          </mxGeometry>
        </mxCell>
        <mxCell id="GkxkM57QEwcgZs1372AV-175" value="" style="ellipse;whiteSpace=wrap;html=1;aspect=fixed;allowArrows=0;rounded=0;" vertex="1" parent="1">
          <mxGeometry x="50" y="130" width="20" height="20" as="geometry" />
        </mxCell>
        <mxCell id="GkxkM57QEwcgZs1372AV-176" value="" style="endArrow=none;html=1;entryX=1;entryY=0.5;entryDx=0;entryDy=0;exitX=0;exitY=0.5;exitDx=0;exitDy=0;strokeWidth=1;rounded=0;strokeColor=#525252;" edge="1" parent="1" target="GkxkM57QEwcgZs1372AV-175" source="GkxkM57QEwcgZs1372AV-37">
          <mxGeometry width="50" height="50" relative="1" as="geometry">
            <mxPoint x="330" y="262" as="sourcePoint" />
            <mxPoint x="290" y="470" as="targetPoint" />
          </mxGeometry>
        </mxCell>
        <mxCell id="GkxkM57QEwcgZs1372AV-177" value="" style="endArrow=none;html=1;entryX=1;entryY=0.5;entryDx=0;entryDy=0;exitX=0;exitY=0.5;exitDx=0;exitDy=0;strokeWidth=1;rounded=0;strokeColor=#525252;" edge="1" parent="1" target="GkxkM57QEwcgZs1372AV-175" source="GkxkM57QEwcgZs1372AV-38">
          <mxGeometry width="50" height="50" relative="1" as="geometry">
            <mxPoint x="330" y="302" as="sourcePoint" />
            <mxPoint x="90" y="162" as="targetPoint" />
          </mxGeometry>
        </mxCell>
        <mxCell id="GkxkM57QEwcgZs1372AV-178" value="" style="endArrow=none;html=1;entryX=1;entryY=0.5;entryDx=0;entryDy=0;exitX=0;exitY=0.5;exitDx=0;exitDy=0;strokeWidth=1;rounded=0;strokeColor=#525252;" edge="1" parent="1" target="GkxkM57QEwcgZs1372AV-175" source="GkxkM57QEwcgZs1372AV-39">
          <mxGeometry width="50" height="50" relative="1" as="geometry">
            <mxPoint x="330" y="342" as="sourcePoint" />
            <mxPoint x="80" y="152" as="targetPoint" />
          </mxGeometry>
        </mxCell>
        <mxCell id="GkxkM57QEwcgZs1372AV-179" value="" style="endArrow=none;html=1;entryX=1;entryY=0.5;entryDx=0;entryDy=0;exitX=0;exitY=0.5;exitDx=0;exitDy=0;strokeWidth=1;rounded=0;strokeColor=#525252;" edge="1" parent="1" target="GkxkM57QEwcgZs1372AV-175" source="GkxkM57QEwcgZs1372AV-40">
          <mxGeometry width="50" height="50" relative="1" as="geometry">
            <mxPoint x="330" y="382" as="sourcePoint" />
            <mxPoint x="90" y="162" as="targetPoint" />
          </mxGeometry>
        </mxCell>
        <mxCell id="GkxkM57QEwcgZs1372AV-180" value="" style="endArrow=none;html=1;entryX=1;entryY=0.5;entryDx=0;entryDy=0;exitX=0;exitY=0.5;exitDx=0;exitDy=0;strokeWidth=1;rounded=0;strokeColor=#525252;" edge="1" parent="1" target="GkxkM57QEwcgZs1372AV-175" source="GkxkM57QEwcgZs1372AV-41">
          <mxGeometry width="50" height="50" relative="1" as="geometry">
            <mxPoint x="330" y="462" as="sourcePoint" />
            <mxPoint x="100" y="172" as="targetPoint" />
          </mxGeometry>
        </mxCell>
        <mxCell id="GkxkM57QEwcgZs1372AV-181" value="" style="endArrow=none;html=1;exitX=0;exitY=0.5;exitDx=0;exitDy=0;strokeWidth=1;rounded=0;strokeColor=#525252;entryX=1;entryY=0.5;entryDx=0;entryDy=0;" edge="1" parent="1" target="GkxkM57QEwcgZs1372AV-175" source="GkxkM57QEwcgZs1372AV-42">
          <mxGeometry width="50" height="50" relative="1" as="geometry">
            <mxPoint x="330" y="502" as="sourcePoint" />
            <mxPoint x="90" y="140" as="targetPoint" />
          </mxGeometry>
        </mxCell>
        <mxCell id="GkxkM57QEwcgZs1372AV-182" value="" style="endArrow=none;html=1;entryX=1;entryY=0.5;entryDx=0;entryDy=0;exitX=0;exitY=0.5;exitDx=0;exitDy=0;strokeWidth=1;rounded=0;strokeColor=#525252;" edge="1" parent="1" target="GkxkM57QEwcgZs1372AV-175" source="GkxkM57QEwcgZs1372AV-44">
          <mxGeometry width="50" height="50" relative="1" as="geometry">
            <mxPoint x="330" y="582" as="sourcePoint" />
            <mxPoint x="120" y="192" as="targetPoint" />
          </mxGeometry>
        </mxCell>
        <mxCell id="GkxkM57QEwcgZs1372AV-183" value="" style="endArrow=none;html=1;entryX=1;entryY=0.5;entryDx=0;entryDy=0;exitX=0;exitY=0.5;exitDx=0;exitDy=0;strokeWidth=1;rounded=0;strokeColor=#525252;" edge="1" parent="1" target="GkxkM57QEwcgZs1372AV-175" source="GkxkM57QEwcgZs1372AV-45">
          <mxGeometry width="50" height="50" relative="1" as="geometry">
            <mxPoint x="330" y="622" as="sourcePoint" />
            <mxPoint x="130" y="202" as="targetPoint" />
          </mxGeometry>
        </mxCell>
        <mxCell id="GkxkM57QEwcgZs1372AV-184" value="" style="endArrow=none;html=1;entryX=1;entryY=0.5;entryDx=0;entryDy=0;exitX=0;exitY=0.5;exitDx=0;exitDy=0;strokeWidth=1;rounded=0;strokeColor=#525252;" edge="1" parent="1" target="GkxkM57QEwcgZs1372AV-175" source="GkxkM57QEwcgZs1372AV-46">
          <mxGeometry width="50" height="50" relative="1" as="geometry">
            <mxPoint x="330" y="662" as="sourcePoint" />
            <mxPoint x="140" y="212" as="targetPoint" />
          </mxGeometry>
        </mxCell>
        <mxCell id="GkxkM57QEwcgZs1372AV-185" value="" style="endArrow=none;html=1;entryX=1;entryY=0.5;entryDx=0;entryDy=0;exitX=0;exitY=0.5;exitDx=0;exitDy=0;strokeWidth=1;rounded=0;strokeColor=#525252;" edge="1" parent="1" target="GkxkM57QEwcgZs1372AV-175" source="GkxkM57QEwcgZs1372AV-36">
          <mxGeometry width="50" height="50" relative="1" as="geometry">
            <mxPoint x="330" y="222" as="sourcePoint" />
            <mxPoint x="150" y="222" as="targetPoint" />
          </mxGeometry>
        </mxCell>
        <mxCell id="GkxkM57QEwcgZs1372AV-186" value="" style="endArrow=none;html=1;entryX=1;entryY=0.5;entryDx=0;entryDy=0;exitX=0;exitY=0.5;exitDx=0;exitDy=0;strokeWidth=1;rounded=0;strokeColor=#525252;" edge="1" parent="1" target="GkxkM57QEwcgZs1372AV-175" source="GkxkM57QEwcgZs1372AV-35">
          <mxGeometry width="50" height="50" relative="1" as="geometry">
            <mxPoint x="330" y="182" as="sourcePoint" />
            <mxPoint x="160" y="232" as="targetPoint" />
          </mxGeometry>
        </mxCell>
        <mxCell id="GkxkM57QEwcgZs1372AV-187" value="" style="endArrow=none;html=1;entryX=1;entryY=0.5;entryDx=0;entryDy=0;exitX=0;exitY=0.5;exitDx=0;exitDy=0;strokeWidth=1;rounded=0;strokeColor=#525252;" edge="1" parent="1" target="GkxkM57QEwcgZs1372AV-175" source="GkxkM57QEwcgZs1372AV-43">
          <mxGeometry width="50" height="50" relative="1" as="geometry">
            <mxPoint x="330" y="542" as="sourcePoint" />
            <mxPoint x="170" y="242" as="targetPoint" />
          </mxGeometry>
        </mxCell>
        <mxCell id="GkxkM57QEwcgZs1372AV-189" value="" style="endArrow=none;html=1;entryX=1;entryY=0.5;entryDx=0;entryDy=0;exitX=0;exitY=0.5;exitDx=0;exitDy=0;strokeWidth=1;rounded=0;strokeColor=#525252;" edge="1" parent="1" target="GkxkM57QEwcgZs1372AV-35" source="GkxkM57QEwcgZs1372AV-397">
          <mxGeometry width="50" height="50" relative="1" as="geometry">
            <mxPoint x="750" y="257" as="sourcePoint" />
            <mxPoint x="487.9999999999998" y="90" as="targetPoint" />
          </mxGeometry>
        </mxCell>
        <mxCell id="GkxkM57QEwcgZs1372AV-190" value="" style="endArrow=none;html=1;entryX=1;entryY=0.5;entryDx=0;entryDy=0;exitX=0;exitY=0.5;exitDx=0;exitDy=0;strokeWidth=1;rounded=0;strokeColor=#525252;" edge="1" parent="1" target="GkxkM57QEwcgZs1372AV-35" source="GkxkM57QEwcgZs1372AV-399">
          <mxGeometry width="50" height="50" relative="1" as="geometry">
            <mxPoint x="750" y="310" as="sourcePoint" />
            <mxPoint x="487.9999999999998" y="103" as="targetPoint" />
          </mxGeometry>
        </mxCell>
        <mxCell id="GkxkM57QEwcgZs1372AV-191" value="" style="endArrow=none;html=1;entryX=1;entryY=0.5;entryDx=0;entryDy=0;exitX=0;exitY=0.5;exitDx=0;exitDy=0;strokeWidth=1;rounded=0;strokeColor=#525252;" edge="1" parent="1" target="GkxkM57QEwcgZs1372AV-35" source="GkxkM57QEwcgZs1372AV-63">
          <mxGeometry width="50" height="50" relative="1" as="geometry">
            <mxPoint x="750" y="348" as="sourcePoint" />
            <mxPoint x="487.9999999999998" y="101" as="targetPoint" />
          </mxGeometry>
        </mxCell>
        <mxCell id="GkxkM57QEwcgZs1372AV-192" value="" style="endArrow=none;html=1;entryX=1;entryY=0.5;entryDx=0;entryDy=0;exitX=0;exitY=0.5;exitDx=0;exitDy=0;strokeWidth=1;rounded=0;strokeColor=#525252;" edge="1" parent="1" target="GkxkM57QEwcgZs1372AV-35" source="GkxkM57QEwcgZs1372AV-64">
          <mxGeometry width="50" height="50" relative="1" as="geometry">
            <mxPoint x="754" y="397" as="sourcePoint" />
            <mxPoint x="491.9999999999998" y="110" as="targetPoint" />
          </mxGeometry>
        </mxCell>
        <mxCell id="GkxkM57QEwcgZs1372AV-198" value="" style="endArrow=none;html=1;entryX=1;entryY=0.5;entryDx=0;entryDy=0;exitX=0;exitY=0.5;exitDx=0;exitDy=0;strokeWidth=1;rounded=0;strokeColor=#525252;" edge="1" parent="1" target="GkxkM57QEwcgZs1372AV-35" source="GkxkM57QEwcgZs1372AV-62">
          <mxGeometry width="50" height="50" relative="1" as="geometry">
            <mxPoint x="672" y="290" as="sourcePoint" />
            <mxPoint x="409.9999999999998" y="163" as="targetPoint" />
          </mxGeometry>
        </mxCell>
        <mxCell id="GkxkM57QEwcgZs1372AV-199" value="" style="endArrow=none;html=1;entryX=1;entryY=0.5;entryDx=0;entryDy=0;exitX=0;exitY=0.5;exitDx=0;exitDy=0;strokeWidth=1;rounded=0;strokeColor=#525252;" edge="1" parent="1" target="GkxkM57QEwcgZs1372AV-35" source="GkxkM57QEwcgZs1372AV-398">
          <mxGeometry width="50" height="50" relative="1" as="geometry">
            <mxPoint x="602" y="217" as="sourcePoint" />
            <mxPoint x="339.9999999999998" y="130" as="targetPoint" />
          </mxGeometry>
        </mxCell>
        <mxCell id="GkxkM57QEwcgZs1372AV-214" value="" style="ellipse;whiteSpace=wrap;html=1;aspect=fixed;allowArrows=0;rounded=0;" vertex="1" parent="1">
          <mxGeometry x="50" y="170" width="20" height="20" as="geometry" />
        </mxCell>
        <mxCell id="GkxkM57QEwcgZs1372AV-215" value="" style="endArrow=none;html=1;entryX=1;entryY=0.5;entryDx=0;entryDy=0;exitX=0;exitY=0.5;exitDx=0;exitDy=0;strokeWidth=1;rounded=0;strokeColor=#525252;" edge="1" parent="1" target="GkxkM57QEwcgZs1372AV-214" source="GkxkM57QEwcgZs1372AV-38">
          <mxGeometry width="50" height="50" relative="1" as="geometry">
            <mxPoint x="330" y="300" as="sourcePoint" />
            <mxPoint x="290" y="508" as="targetPoint" />
          </mxGeometry>
        </mxCell>
        <mxCell id="GkxkM57QEwcgZs1372AV-216" value="" style="endArrow=none;html=1;entryX=1;entryY=0.5;entryDx=0;entryDy=0;exitX=0;exitY=0.5;exitDx=0;exitDy=0;strokeWidth=1;rounded=0;strokeColor=#525252;" edge="1" parent="1" target="GkxkM57QEwcgZs1372AV-214" source="GkxkM57QEwcgZs1372AV-39">
          <mxGeometry width="50" height="50" relative="1" as="geometry">
            <mxPoint x="330" y="340" as="sourcePoint" />
            <mxPoint x="90" y="200" as="targetPoint" />
          </mxGeometry>
        </mxCell>
        <mxCell id="GkxkM57QEwcgZs1372AV-217" value="" style="endArrow=none;html=1;entryX=1;entryY=0.5;entryDx=0;entryDy=0;exitX=0;exitY=0.5;exitDx=0;exitDy=0;strokeWidth=1;rounded=0;strokeColor=#525252;" edge="1" parent="1" target="GkxkM57QEwcgZs1372AV-214" source="GkxkM57QEwcgZs1372AV-40">
          <mxGeometry width="50" height="50" relative="1" as="geometry">
            <mxPoint x="330" y="380" as="sourcePoint" />
            <mxPoint x="80" y="190" as="targetPoint" />
          </mxGeometry>
        </mxCell>
        <mxCell id="GkxkM57QEwcgZs1372AV-218" value="" style="endArrow=none;html=1;entryX=1;entryY=0.5;entryDx=0;entryDy=0;exitX=0;exitY=0.5;exitDx=0;exitDy=0;strokeWidth=1;rounded=0;strokeColor=#525252;" edge="1" parent="1" target="GkxkM57QEwcgZs1372AV-214" source="GkxkM57QEwcgZs1372AV-41">
          <mxGeometry width="50" height="50" relative="1" as="geometry">
            <mxPoint x="330" y="420" as="sourcePoint" />
            <mxPoint x="90" y="200" as="targetPoint" />
          </mxGeometry>
        </mxCell>
        <mxCell id="GkxkM57QEwcgZs1372AV-219" value="" style="endArrow=none;html=1;entryX=1;entryY=0.5;entryDx=0;entryDy=0;exitX=0;exitY=0.5;exitDx=0;exitDy=0;strokeWidth=1;rounded=0;strokeColor=#525252;" edge="1" parent="1" target="GkxkM57QEwcgZs1372AV-214" source="GkxkM57QEwcgZs1372AV-42">
          <mxGeometry width="50" height="50" relative="1" as="geometry">
            <mxPoint x="330" y="500" as="sourcePoint" />
            <mxPoint x="100" y="210" as="targetPoint" />
          </mxGeometry>
        </mxCell>
        <mxCell id="GkxkM57QEwcgZs1372AV-220" value="" style="endArrow=none;html=1;exitX=0;exitY=0.5;exitDx=0;exitDy=0;strokeWidth=1;rounded=0;strokeColor=#525252;entryX=1;entryY=0.5;entryDx=0;entryDy=0;" edge="1" parent="1" target="GkxkM57QEwcgZs1372AV-214" source="GkxkM57QEwcgZs1372AV-43">
          <mxGeometry width="50" height="50" relative="1" as="geometry">
            <mxPoint x="330" y="540" as="sourcePoint" />
            <mxPoint x="90" y="178" as="targetPoint" />
          </mxGeometry>
        </mxCell>
        <mxCell id="GkxkM57QEwcgZs1372AV-221" value="" style="endArrow=none;html=1;entryX=1;entryY=0.5;entryDx=0;entryDy=0;exitX=0;exitY=0.5;exitDx=0;exitDy=0;strokeWidth=1;rounded=0;strokeColor=#525252;" edge="1" parent="1" target="GkxkM57QEwcgZs1372AV-214" source="GkxkM57QEwcgZs1372AV-45">
          <mxGeometry width="50" height="50" relative="1" as="geometry">
            <mxPoint x="330" y="620" as="sourcePoint" />
            <mxPoint x="120" y="230" as="targetPoint" />
          </mxGeometry>
        </mxCell>
        <mxCell id="GkxkM57QEwcgZs1372AV-222" value="" style="endArrow=none;html=1;entryX=1;entryY=0.5;entryDx=0;entryDy=0;exitX=0;exitY=0.5;exitDx=0;exitDy=0;strokeWidth=1;rounded=0;strokeColor=#525252;" edge="1" parent="1" target="GkxkM57QEwcgZs1372AV-214" source="GkxkM57QEwcgZs1372AV-46">
          <mxGeometry width="50" height="50" relative="1" as="geometry">
            <mxPoint x="330" y="660" as="sourcePoint" />
            <mxPoint x="130" y="240" as="targetPoint" />
          </mxGeometry>
        </mxCell>
        <mxCell id="GkxkM57QEwcgZs1372AV-223" value="" style="endArrow=none;html=1;entryX=1;entryY=0.5;entryDx=0;entryDy=0;exitX=0;exitY=0.5;exitDx=0;exitDy=0;strokeWidth=1;rounded=0;strokeColor=#525252;" edge="1" parent="1" target="GkxkM57QEwcgZs1372AV-214" source="GkxkM57QEwcgZs1372AV-35">
          <mxGeometry width="50" height="50" relative="1" as="geometry">
            <mxPoint x="330" y="700" as="sourcePoint" />
            <mxPoint x="140" y="250" as="targetPoint" />
          </mxGeometry>
        </mxCell>
        <mxCell id="GkxkM57QEwcgZs1372AV-224" value="" style="endArrow=none;html=1;entryX=1;entryY=0.5;entryDx=0;entryDy=0;exitX=0;exitY=0.5;exitDx=0;exitDy=0;strokeWidth=1;rounded=0;strokeColor=#525252;" edge="1" parent="1" target="GkxkM57QEwcgZs1372AV-214" source="GkxkM57QEwcgZs1372AV-37">
          <mxGeometry width="50" height="50" relative="1" as="geometry">
            <mxPoint x="330" y="260" as="sourcePoint" />
            <mxPoint x="150" y="260" as="targetPoint" />
          </mxGeometry>
        </mxCell>
        <mxCell id="GkxkM57QEwcgZs1372AV-225" value="" style="endArrow=none;html=1;entryX=1;entryY=0.5;entryDx=0;entryDy=0;strokeWidth=1;rounded=0;strokeColor=#525252;exitX=0;exitY=0.5;exitDx=0;exitDy=0;" edge="1" parent="1" target="GkxkM57QEwcgZs1372AV-214" source="GkxkM57QEwcgZs1372AV-36">
          <mxGeometry width="50" height="50" relative="1" as="geometry">
            <mxPoint x="320" y="220" as="sourcePoint" />
            <mxPoint x="160" y="270" as="targetPoint" />
          </mxGeometry>
        </mxCell>
        <mxCell id="GkxkM57QEwcgZs1372AV-226" value="" style="endArrow=none;html=1;entryX=1;entryY=0.5;entryDx=0;entryDy=0;exitX=0;exitY=0.5;exitDx=0;exitDy=0;strokeWidth=1;rounded=0;strokeColor=#525252;" edge="1" parent="1" target="GkxkM57QEwcgZs1372AV-214" source="GkxkM57QEwcgZs1372AV-44">
          <mxGeometry width="50" height="50" relative="1" as="geometry">
            <mxPoint x="330" y="580" as="sourcePoint" />
            <mxPoint x="170" y="280" as="targetPoint" />
          </mxGeometry>
        </mxCell>
        <mxCell id="GkxkM57QEwcgZs1372AV-227" value="" style="endArrow=none;html=1;entryX=1;entryY=0.5;entryDx=0;entryDy=0;exitX=0;exitY=0.5;exitDx=0;exitDy=0;strokeWidth=1;rounded=0;strokeColor=#525252;" edge="1" parent="1" source="GkxkM57QEwcgZs1372AV-35" target="GkxkM57QEwcgZs1372AV-16">
          <mxGeometry width="50" height="50" relative="1" as="geometry">
            <mxPoint x="760" y="176.9999999999999" as="sourcePoint" />
            <mxPoint x="500" y="137.0000000000001" as="targetPoint" />
          </mxGeometry>
        </mxCell>
        <mxCell id="GkxkM57QEwcgZs1372AV-241" value="" style="ellipse;whiteSpace=wrap;html=1;aspect=fixed;allowArrows=0;rounded=0;" vertex="1" parent="1">
          <mxGeometry x="50" y="210" width="20" height="20" as="geometry" />
        </mxCell>
        <mxCell id="GkxkM57QEwcgZs1372AV-242" value="" style="endArrow=none;html=1;entryX=1;entryY=0.5;entryDx=0;entryDy=0;exitX=0;exitY=0.5;exitDx=0;exitDy=0;strokeWidth=1;rounded=0;strokeColor=#525252;" edge="1" parent="1" target="GkxkM57QEwcgZs1372AV-241" source="GkxkM57QEwcgZs1372AV-37">
          <mxGeometry width="50" height="50" relative="1" as="geometry">
            <mxPoint x="330" y="339.9999999999999" as="sourcePoint" />
            <mxPoint x="290" y="548" as="targetPoint" />
          </mxGeometry>
        </mxCell>
        <mxCell id="GkxkM57QEwcgZs1372AV-243" value="" style="endArrow=none;html=1;entryX=1;entryY=0.5;entryDx=0;entryDy=0;exitX=0;exitY=0.5;exitDx=0;exitDy=0;strokeWidth=1;rounded=0;strokeColor=#525252;" edge="1" parent="1" target="GkxkM57QEwcgZs1372AV-241" source="GkxkM57QEwcgZs1372AV-38">
          <mxGeometry width="50" height="50" relative="1" as="geometry">
            <mxPoint x="330" y="379.9999999999999" as="sourcePoint" />
            <mxPoint x="90" y="240" as="targetPoint" />
          </mxGeometry>
        </mxCell>
        <mxCell id="GkxkM57QEwcgZs1372AV-244" value="" style="endArrow=none;html=1;entryX=1;entryY=0.5;entryDx=0;entryDy=0;exitX=0;exitY=0.5;exitDx=0;exitDy=0;strokeWidth=1;rounded=0;strokeColor=#525252;" edge="1" parent="1" target="GkxkM57QEwcgZs1372AV-241" source="GkxkM57QEwcgZs1372AV-39">
          <mxGeometry width="50" height="50" relative="1" as="geometry">
            <mxPoint x="330" y="420" as="sourcePoint" />
            <mxPoint x="80" y="230" as="targetPoint" />
          </mxGeometry>
        </mxCell>
        <mxCell id="GkxkM57QEwcgZs1372AV-245" value="" style="endArrow=none;html=1;entryX=1;entryY=0.5;entryDx=0;entryDy=0;exitX=0;exitY=0.5;exitDx=0;exitDy=0;strokeWidth=1;rounded=0;strokeColor=#525252;" edge="1" parent="1" target="GkxkM57QEwcgZs1372AV-241" source="GkxkM57QEwcgZs1372AV-40">
          <mxGeometry width="50" height="50" relative="1" as="geometry">
            <mxPoint x="330" y="460" as="sourcePoint" />
            <mxPoint x="90" y="240" as="targetPoint" />
          </mxGeometry>
        </mxCell>
        <mxCell id="GkxkM57QEwcgZs1372AV-246" value="" style="endArrow=none;html=1;entryX=1;entryY=0.5;entryDx=0;entryDy=0;exitX=0;exitY=0.5;exitDx=0;exitDy=0;strokeWidth=1;rounded=0;strokeColor=#525252;" edge="1" parent="1" target="GkxkM57QEwcgZs1372AV-241" source="GkxkM57QEwcgZs1372AV-41">
          <mxGeometry width="50" height="50" relative="1" as="geometry">
            <mxPoint x="330" y="540" as="sourcePoint" />
            <mxPoint x="100" y="250" as="targetPoint" />
          </mxGeometry>
        </mxCell>
        <mxCell id="GkxkM57QEwcgZs1372AV-247" value="" style="endArrow=none;html=1;exitX=0;exitY=0.5;exitDx=0;exitDy=0;strokeWidth=1;rounded=0;strokeColor=#525252;entryX=1;entryY=0.5;entryDx=0;entryDy=0;" edge="1" parent="1" target="GkxkM57QEwcgZs1372AV-241" source="GkxkM57QEwcgZs1372AV-42">
          <mxGeometry width="50" height="50" relative="1" as="geometry">
            <mxPoint x="330" y="580" as="sourcePoint" />
            <mxPoint x="90" y="218" as="targetPoint" />
          </mxGeometry>
        </mxCell>
        <mxCell id="GkxkM57QEwcgZs1372AV-248" value="" style="endArrow=none;html=1;entryX=1;entryY=0.5;entryDx=0;entryDy=0;exitX=0;exitY=0.5;exitDx=0;exitDy=0;strokeWidth=1;rounded=0;strokeColor=#525252;" edge="1" parent="1" target="GkxkM57QEwcgZs1372AV-241" source="GkxkM57QEwcgZs1372AV-44">
          <mxGeometry width="50" height="50" relative="1" as="geometry">
            <mxPoint x="330" y="660" as="sourcePoint" />
            <mxPoint x="120" y="270" as="targetPoint" />
          </mxGeometry>
        </mxCell>
        <mxCell id="GkxkM57QEwcgZs1372AV-249" value="" style="endArrow=none;html=1;entryX=1;entryY=0.5;entryDx=0;entryDy=0;exitX=0;exitY=0.5;exitDx=0;exitDy=0;strokeWidth=1;rounded=0;strokeColor=#525252;" edge="1" parent="1" target="GkxkM57QEwcgZs1372AV-241" source="GkxkM57QEwcgZs1372AV-45">
          <mxGeometry width="50" height="50" relative="1" as="geometry">
            <mxPoint x="330" y="700" as="sourcePoint" />
            <mxPoint x="130" y="280" as="targetPoint" />
          </mxGeometry>
        </mxCell>
        <mxCell id="GkxkM57QEwcgZs1372AV-250" value="" style="endArrow=none;html=1;entryX=1;entryY=0.5;entryDx=0;entryDy=0;exitX=0;exitY=0.5;exitDx=0;exitDy=0;strokeWidth=1;rounded=0;strokeColor=#525252;" edge="1" parent="1" target="GkxkM57QEwcgZs1372AV-241" source="GkxkM57QEwcgZs1372AV-46">
          <mxGeometry width="50" height="50" relative="1" as="geometry">
            <mxPoint x="330" y="740" as="sourcePoint" />
            <mxPoint x="140" y="290" as="targetPoint" />
          </mxGeometry>
        </mxCell>
        <mxCell id="GkxkM57QEwcgZs1372AV-251" value="" style="endArrow=none;html=1;entryX=1;entryY=0.5;entryDx=0;entryDy=0;exitX=0;exitY=0.5;exitDx=0;exitDy=0;strokeWidth=1;rounded=0;strokeColor=#525252;" edge="1" parent="1" target="GkxkM57QEwcgZs1372AV-241" source="GkxkM57QEwcgZs1372AV-36">
          <mxGeometry width="50" height="50" relative="1" as="geometry">
            <mxPoint x="330" y="299.9999999999999" as="sourcePoint" />
            <mxPoint x="150" y="300" as="targetPoint" />
          </mxGeometry>
        </mxCell>
        <mxCell id="GkxkM57QEwcgZs1372AV-252" value="" style="endArrow=none;html=1;entryX=1;entryY=0.5;entryDx=0;entryDy=0;exitX=0;exitY=0.5;exitDx=0;exitDy=0;strokeWidth=1;rounded=0;strokeColor=#525252;" edge="1" parent="1" target="GkxkM57QEwcgZs1372AV-241" source="GkxkM57QEwcgZs1372AV-35">
          <mxGeometry width="50" height="50" relative="1" as="geometry">
            <mxPoint x="330" y="259.9999999999999" as="sourcePoint" />
            <mxPoint x="160" y="310" as="targetPoint" />
          </mxGeometry>
        </mxCell>
        <mxCell id="GkxkM57QEwcgZs1372AV-253" value="" style="endArrow=none;html=1;entryX=1;entryY=0.5;entryDx=0;entryDy=0;exitX=0;exitY=0.5;exitDx=0;exitDy=0;strokeWidth=1;rounded=0;strokeColor=#525252;" edge="1" parent="1" target="GkxkM57QEwcgZs1372AV-241" source="GkxkM57QEwcgZs1372AV-43">
          <mxGeometry width="50" height="50" relative="1" as="geometry">
            <mxPoint x="330" y="620" as="sourcePoint" />
            <mxPoint x="170" y="320" as="targetPoint" />
          </mxGeometry>
        </mxCell>
        <mxCell id="GkxkM57QEwcgZs1372AV-267" value="" style="ellipse;whiteSpace=wrap;html=1;aspect=fixed;allowArrows=0;rounded=0;" vertex="1" parent="1">
          <mxGeometry x="50" y="250" width="20" height="20" as="geometry" />
        </mxCell>
        <mxCell id="GkxkM57QEwcgZs1372AV-268" value="" style="endArrow=none;html=1;entryX=1;entryY=0.5;entryDx=0;entryDy=0;exitX=0;exitY=0.5;exitDx=0;exitDy=0;strokeWidth=1;rounded=0;strokeColor=#525252;" edge="1" parent="1" target="GkxkM57QEwcgZs1372AV-267" source="GkxkM57QEwcgZs1372AV-37">
          <mxGeometry width="50" height="50" relative="1" as="geometry">
            <mxPoint x="330" y="382" as="sourcePoint" />
            <mxPoint x="290" y="590" as="targetPoint" />
          </mxGeometry>
        </mxCell>
        <mxCell id="GkxkM57QEwcgZs1372AV-269" value="" style="endArrow=none;html=1;entryX=1;entryY=0.5;entryDx=0;entryDy=0;exitX=0;exitY=0.5;exitDx=0;exitDy=0;strokeWidth=1;rounded=0;strokeColor=#525252;" edge="1" parent="1" target="GkxkM57QEwcgZs1372AV-267" source="GkxkM57QEwcgZs1372AV-38">
          <mxGeometry width="50" height="50" relative="1" as="geometry">
            <mxPoint x="330" y="422" as="sourcePoint" />
            <mxPoint x="90" y="282" as="targetPoint" />
          </mxGeometry>
        </mxCell>
        <mxCell id="GkxkM57QEwcgZs1372AV-270" value="" style="endArrow=none;html=1;entryX=1;entryY=0.5;entryDx=0;entryDy=0;exitX=0;exitY=0.5;exitDx=0;exitDy=0;strokeWidth=1;rounded=0;strokeColor=#525252;" edge="1" parent="1" target="GkxkM57QEwcgZs1372AV-267" source="GkxkM57QEwcgZs1372AV-39">
          <mxGeometry width="50" height="50" relative="1" as="geometry">
            <mxPoint x="330" y="462" as="sourcePoint" />
            <mxPoint x="80" y="272" as="targetPoint" />
          </mxGeometry>
        </mxCell>
        <mxCell id="GkxkM57QEwcgZs1372AV-271" value="" style="endArrow=none;html=1;entryX=1;entryY=0.5;entryDx=0;entryDy=0;exitX=0;exitY=0.5;exitDx=0;exitDy=0;strokeWidth=1;rounded=0;strokeColor=#525252;" edge="1" parent="1" target="GkxkM57QEwcgZs1372AV-267" source="GkxkM57QEwcgZs1372AV-40">
          <mxGeometry width="50" height="50" relative="1" as="geometry">
            <mxPoint x="330" y="502" as="sourcePoint" />
            <mxPoint x="90" y="282" as="targetPoint" />
          </mxGeometry>
        </mxCell>
        <mxCell id="GkxkM57QEwcgZs1372AV-272" value="" style="endArrow=none;html=1;entryX=1;entryY=0.5;entryDx=0;entryDy=0;exitX=0;exitY=0.5;exitDx=0;exitDy=0;strokeWidth=1;rounded=0;strokeColor=#525252;" edge="1" parent="1" target="GkxkM57QEwcgZs1372AV-267" source="GkxkM57QEwcgZs1372AV-41">
          <mxGeometry width="50" height="50" relative="1" as="geometry">
            <mxPoint x="330" y="582" as="sourcePoint" />
            <mxPoint x="100" y="292" as="targetPoint" />
          </mxGeometry>
        </mxCell>
        <mxCell id="GkxkM57QEwcgZs1372AV-273" value="" style="endArrow=none;html=1;exitX=0;exitY=0.5;exitDx=0;exitDy=0;strokeWidth=1;rounded=0;strokeColor=#525252;entryX=1;entryY=0.5;entryDx=0;entryDy=0;" edge="1" parent="1" target="GkxkM57QEwcgZs1372AV-267" source="GkxkM57QEwcgZs1372AV-42">
          <mxGeometry width="50" height="50" relative="1" as="geometry">
            <mxPoint x="330" y="622" as="sourcePoint" />
            <mxPoint x="90" y="260" as="targetPoint" />
          </mxGeometry>
        </mxCell>
        <mxCell id="GkxkM57QEwcgZs1372AV-274" value="" style="endArrow=none;html=1;entryX=1;entryY=0.5;entryDx=0;entryDy=0;exitX=0;exitY=0.5;exitDx=0;exitDy=0;strokeWidth=1;rounded=0;strokeColor=#525252;" edge="1" parent="1" target="GkxkM57QEwcgZs1372AV-267" source="GkxkM57QEwcgZs1372AV-44">
          <mxGeometry width="50" height="50" relative="1" as="geometry">
            <mxPoint x="330" y="702" as="sourcePoint" />
            <mxPoint x="120" y="312" as="targetPoint" />
          </mxGeometry>
        </mxCell>
        <mxCell id="GkxkM57QEwcgZs1372AV-275" value="" style="endArrow=none;html=1;entryX=1;entryY=0.5;entryDx=0;entryDy=0;exitX=0;exitY=0.5;exitDx=0;exitDy=0;strokeWidth=1;rounded=0;strokeColor=#525252;" edge="1" parent="1" target="GkxkM57QEwcgZs1372AV-267" source="GkxkM57QEwcgZs1372AV-45">
          <mxGeometry width="50" height="50" relative="1" as="geometry">
            <mxPoint x="330" y="742" as="sourcePoint" />
            <mxPoint x="130" y="322" as="targetPoint" />
          </mxGeometry>
        </mxCell>
        <mxCell id="GkxkM57QEwcgZs1372AV-276" value="" style="endArrow=none;html=1;entryX=1;entryY=0.5;entryDx=0;entryDy=0;exitX=0;exitY=0.5;exitDx=0;exitDy=0;strokeWidth=1;rounded=0;strokeColor=#525252;" edge="1" parent="1" target="GkxkM57QEwcgZs1372AV-267" source="GkxkM57QEwcgZs1372AV-46">
          <mxGeometry width="50" height="50" relative="1" as="geometry">
            <mxPoint x="330" y="782" as="sourcePoint" />
            <mxPoint x="140" y="332" as="targetPoint" />
          </mxGeometry>
        </mxCell>
        <mxCell id="GkxkM57QEwcgZs1372AV-277" value="" style="endArrow=none;html=1;entryX=1;entryY=0.5;entryDx=0;entryDy=0;exitX=0;exitY=0.5;exitDx=0;exitDy=0;strokeWidth=1;rounded=0;strokeColor=#525252;" edge="1" parent="1" target="GkxkM57QEwcgZs1372AV-267" source="GkxkM57QEwcgZs1372AV-36">
          <mxGeometry width="50" height="50" relative="1" as="geometry">
            <mxPoint x="330" y="342" as="sourcePoint" />
            <mxPoint x="150" y="342" as="targetPoint" />
          </mxGeometry>
        </mxCell>
        <mxCell id="GkxkM57QEwcgZs1372AV-278" value="" style="endArrow=none;html=1;entryX=1;entryY=0.5;entryDx=0;entryDy=0;exitX=0;exitY=0.5;exitDx=0;exitDy=0;strokeWidth=1;rounded=0;strokeColor=#525252;" edge="1" parent="1" target="GkxkM57QEwcgZs1372AV-267" source="GkxkM57QEwcgZs1372AV-35">
          <mxGeometry width="50" height="50" relative="1" as="geometry">
            <mxPoint x="330" y="302" as="sourcePoint" />
            <mxPoint x="160" y="352" as="targetPoint" />
          </mxGeometry>
        </mxCell>
        <mxCell id="GkxkM57QEwcgZs1372AV-279" value="" style="endArrow=none;html=1;entryX=1;entryY=0.5;entryDx=0;entryDy=0;exitX=0;exitY=0.5;exitDx=0;exitDy=0;strokeWidth=1;rounded=0;strokeColor=#525252;" edge="1" parent="1" target="GkxkM57QEwcgZs1372AV-267" source="GkxkM57QEwcgZs1372AV-43">
          <mxGeometry width="50" height="50" relative="1" as="geometry">
            <mxPoint x="330" y="662" as="sourcePoint" />
            <mxPoint x="170" y="362" as="targetPoint" />
          </mxGeometry>
        </mxCell>
        <mxCell id="GkxkM57QEwcgZs1372AV-280" value="" style="ellipse;whiteSpace=wrap;html=1;aspect=fixed;allowArrows=0;rounded=0;" vertex="1" parent="1">
          <mxGeometry x="50" y="290" width="20" height="20" as="geometry" />
        </mxCell>
        <mxCell id="GkxkM57QEwcgZs1372AV-281" value="" style="endArrow=none;html=1;entryX=1;entryY=0.5;entryDx=0;entryDy=0;exitX=0;exitY=0.5;exitDx=0;exitDy=0;strokeWidth=1;rounded=0;strokeColor=#525252;" edge="1" parent="1" target="GkxkM57QEwcgZs1372AV-280" source="GkxkM57QEwcgZs1372AV-37">
          <mxGeometry width="50" height="50" relative="1" as="geometry">
            <mxPoint x="330" y="420" as="sourcePoint" />
            <mxPoint x="290" y="628" as="targetPoint" />
          </mxGeometry>
        </mxCell>
        <mxCell id="GkxkM57QEwcgZs1372AV-282" value="" style="endArrow=none;html=1;entryX=1;entryY=0.5;entryDx=0;entryDy=0;exitX=0;exitY=0.5;exitDx=0;exitDy=0;strokeWidth=1;rounded=0;strokeColor=#525252;" edge="1" parent="1" target="GkxkM57QEwcgZs1372AV-280" source="GkxkM57QEwcgZs1372AV-38">
          <mxGeometry width="50" height="50" relative="1" as="geometry">
            <mxPoint x="330" y="460" as="sourcePoint" />
            <mxPoint x="90" y="320" as="targetPoint" />
          </mxGeometry>
        </mxCell>
        <mxCell id="GkxkM57QEwcgZs1372AV-283" value="" style="endArrow=none;html=1;entryX=1;entryY=0.5;entryDx=0;entryDy=0;strokeWidth=1;rounded=0;strokeColor=#525252;exitX=0;exitY=0.5;exitDx=0;exitDy=0;" edge="1" parent="1" target="GkxkM57QEwcgZs1372AV-280" source="GkxkM57QEwcgZs1372AV-39">
          <mxGeometry width="50" height="50" relative="1" as="geometry">
            <mxPoint x="330" y="490" as="sourcePoint" />
            <mxPoint x="80" y="310" as="targetPoint" />
          </mxGeometry>
        </mxCell>
        <mxCell id="GkxkM57QEwcgZs1372AV-284" value="" style="endArrow=none;html=1;entryX=1;entryY=0.5;entryDx=0;entryDy=0;exitX=0;exitY=0.5;exitDx=0;exitDy=0;strokeWidth=1;rounded=0;strokeColor=#525252;" edge="1" parent="1" target="GkxkM57QEwcgZs1372AV-280" source="GkxkM57QEwcgZs1372AV-40">
          <mxGeometry width="50" height="50" relative="1" as="geometry">
            <mxPoint x="330" y="540" as="sourcePoint" />
            <mxPoint x="90" y="320" as="targetPoint" />
          </mxGeometry>
        </mxCell>
        <mxCell id="GkxkM57QEwcgZs1372AV-285" value="" style="endArrow=none;html=1;entryX=1;entryY=0.5;entryDx=0;entryDy=0;exitX=0;exitY=0.5;exitDx=0;exitDy=0;strokeWidth=1;rounded=0;strokeColor=#525252;" edge="1" parent="1" target="GkxkM57QEwcgZs1372AV-280" source="GkxkM57QEwcgZs1372AV-41">
          <mxGeometry width="50" height="50" relative="1" as="geometry">
            <mxPoint x="330" y="620" as="sourcePoint" />
            <mxPoint x="100" y="330" as="targetPoint" />
          </mxGeometry>
        </mxCell>
        <mxCell id="GkxkM57QEwcgZs1372AV-286" value="" style="endArrow=none;html=1;exitX=0;exitY=0.5;exitDx=0;exitDy=0;strokeWidth=1;rounded=0;strokeColor=#525252;entryX=1;entryY=0.5;entryDx=0;entryDy=0;" edge="1" parent="1" target="GkxkM57QEwcgZs1372AV-280" source="GkxkM57QEwcgZs1372AV-42">
          <mxGeometry width="50" height="50" relative="1" as="geometry">
            <mxPoint x="330" y="660" as="sourcePoint" />
            <mxPoint x="90" y="298" as="targetPoint" />
          </mxGeometry>
        </mxCell>
        <mxCell id="GkxkM57QEwcgZs1372AV-287" value="" style="endArrow=none;html=1;entryX=1;entryY=0.5;entryDx=0;entryDy=0;exitX=0;exitY=0.5;exitDx=0;exitDy=0;strokeWidth=1;rounded=0;strokeColor=#525252;" edge="1" parent="1" target="GkxkM57QEwcgZs1372AV-280" source="GkxkM57QEwcgZs1372AV-44">
          <mxGeometry width="50" height="50" relative="1" as="geometry">
            <mxPoint x="330" y="740" as="sourcePoint" />
            <mxPoint x="120" y="350" as="targetPoint" />
          </mxGeometry>
        </mxCell>
        <mxCell id="GkxkM57QEwcgZs1372AV-288" value="" style="endArrow=none;html=1;entryX=1;entryY=0.5;entryDx=0;entryDy=0;exitX=0;exitY=0.5;exitDx=0;exitDy=0;strokeWidth=1;rounded=0;strokeColor=#525252;" edge="1" parent="1" target="GkxkM57QEwcgZs1372AV-280" source="GkxkM57QEwcgZs1372AV-45">
          <mxGeometry width="50" height="50" relative="1" as="geometry">
            <mxPoint x="330" y="780" as="sourcePoint" />
            <mxPoint x="130" y="360" as="targetPoint" />
          </mxGeometry>
        </mxCell>
        <mxCell id="GkxkM57QEwcgZs1372AV-289" value="" style="endArrow=none;html=1;entryX=1;entryY=0.5;entryDx=0;entryDy=0;exitX=0;exitY=0.5;exitDx=0;exitDy=0;strokeWidth=1;rounded=0;strokeColor=#525252;" edge="1" parent="1" target="GkxkM57QEwcgZs1372AV-280" source="GkxkM57QEwcgZs1372AV-46">
          <mxGeometry width="50" height="50" relative="1" as="geometry">
            <mxPoint x="330" y="820" as="sourcePoint" />
            <mxPoint x="140" y="370" as="targetPoint" />
          </mxGeometry>
        </mxCell>
        <mxCell id="GkxkM57QEwcgZs1372AV-290" value="" style="endArrow=none;html=1;entryX=1;entryY=0.5;entryDx=0;entryDy=0;exitX=0;exitY=0.5;exitDx=0;exitDy=0;strokeWidth=1;rounded=0;strokeColor=#525252;" edge="1" parent="1" target="GkxkM57QEwcgZs1372AV-280" source="GkxkM57QEwcgZs1372AV-36">
          <mxGeometry width="50" height="50" relative="1" as="geometry">
            <mxPoint x="330" y="380" as="sourcePoint" />
            <mxPoint x="150" y="380" as="targetPoint" />
          </mxGeometry>
        </mxCell>
        <mxCell id="GkxkM57QEwcgZs1372AV-291" value="" style="endArrow=none;html=1;entryX=1;entryY=0.5;entryDx=0;entryDy=0;exitX=0;exitY=0.5;exitDx=0;exitDy=0;strokeWidth=1;rounded=0;strokeColor=#525252;" edge="1" parent="1" target="GkxkM57QEwcgZs1372AV-280" source="GkxkM57QEwcgZs1372AV-35">
          <mxGeometry width="50" height="50" relative="1" as="geometry">
            <mxPoint x="330" y="340" as="sourcePoint" />
            <mxPoint x="160" y="390" as="targetPoint" />
          </mxGeometry>
        </mxCell>
        <mxCell id="GkxkM57QEwcgZs1372AV-292" value="" style="endArrow=none;html=1;entryX=1;entryY=0.5;entryDx=0;entryDy=0;exitX=0;exitY=0.5;exitDx=0;exitDy=0;strokeWidth=1;rounded=0;strokeColor=#525252;" edge="1" parent="1" target="GkxkM57QEwcgZs1372AV-280" source="GkxkM57QEwcgZs1372AV-43">
          <mxGeometry width="50" height="50" relative="1" as="geometry">
            <mxPoint x="330" y="700" as="sourcePoint" />
            <mxPoint x="170" y="400" as="targetPoint" />
          </mxGeometry>
        </mxCell>
        <mxCell id="GkxkM57QEwcgZs1372AV-293" value="" style="ellipse;whiteSpace=wrap;html=1;aspect=fixed;allowArrows=0;rounded=0;" vertex="1" parent="1">
          <mxGeometry x="50" y="370" width="20" height="20" as="geometry" />
        </mxCell>
        <mxCell id="GkxkM57QEwcgZs1372AV-294" value="" style="endArrow=none;html=1;entryX=1;entryY=0.5;entryDx=0;entryDy=0;exitX=0;exitY=0.5;exitDx=0;exitDy=0;strokeWidth=1;rounded=0;strokeColor=#525252;" edge="1" parent="1" target="GkxkM57QEwcgZs1372AV-293" source="GkxkM57QEwcgZs1372AV-37">
          <mxGeometry width="50" height="50" relative="1" as="geometry">
            <mxPoint x="330" y="505" as="sourcePoint" />
            <mxPoint x="290" y="713" as="targetPoint" />
          </mxGeometry>
        </mxCell>
        <mxCell id="GkxkM57QEwcgZs1372AV-295" value="" style="endArrow=none;html=1;entryX=1;entryY=0.5;entryDx=0;entryDy=0;exitX=0;exitY=0.5;exitDx=0;exitDy=0;strokeWidth=1;rounded=0;strokeColor=#525252;" edge="1" parent="1" target="GkxkM57QEwcgZs1372AV-293" source="GkxkM57QEwcgZs1372AV-38">
          <mxGeometry width="50" height="50" relative="1" as="geometry">
            <mxPoint x="330" y="545" as="sourcePoint" />
            <mxPoint x="90" y="405" as="targetPoint" />
          </mxGeometry>
        </mxCell>
        <mxCell id="GkxkM57QEwcgZs1372AV-296" value="" style="endArrow=none;html=1;entryX=1;entryY=0.5;entryDx=0;entryDy=0;exitX=0;exitY=0.5;exitDx=0;exitDy=0;strokeWidth=1;rounded=0;strokeColor=#525252;" edge="1" parent="1" target="GkxkM57QEwcgZs1372AV-293" source="GkxkM57QEwcgZs1372AV-39">
          <mxGeometry width="50" height="50" relative="1" as="geometry">
            <mxPoint x="330" y="585" as="sourcePoint" />
            <mxPoint x="80" y="395" as="targetPoint" />
          </mxGeometry>
        </mxCell>
        <mxCell id="GkxkM57QEwcgZs1372AV-297" value="" style="endArrow=none;html=1;entryX=1;entryY=0.5;entryDx=0;entryDy=0;exitX=0;exitY=0.5;exitDx=0;exitDy=0;strokeWidth=1;rounded=0;strokeColor=#525252;" edge="1" parent="1" target="GkxkM57QEwcgZs1372AV-293" source="GkxkM57QEwcgZs1372AV-40">
          <mxGeometry width="50" height="50" relative="1" as="geometry">
            <mxPoint x="330" y="625" as="sourcePoint" />
            <mxPoint x="90" y="405" as="targetPoint" />
          </mxGeometry>
        </mxCell>
        <mxCell id="GkxkM57QEwcgZs1372AV-298" value="" style="endArrow=none;html=1;entryX=1;entryY=0.5;entryDx=0;entryDy=0;exitX=0;exitY=0.5;exitDx=0;exitDy=0;strokeWidth=1;rounded=0;strokeColor=#525252;" edge="1" parent="1" target="GkxkM57QEwcgZs1372AV-293" source="GkxkM57QEwcgZs1372AV-41">
          <mxGeometry width="50" height="50" relative="1" as="geometry">
            <mxPoint x="330" y="705" as="sourcePoint" />
            <mxPoint x="100" y="415" as="targetPoint" />
          </mxGeometry>
        </mxCell>
        <mxCell id="GkxkM57QEwcgZs1372AV-299" value="" style="endArrow=none;html=1;exitX=0;exitY=0.5;exitDx=0;exitDy=0;strokeWidth=1;rounded=0;strokeColor=#525252;entryX=1;entryY=0.5;entryDx=0;entryDy=0;" edge="1" parent="1" target="GkxkM57QEwcgZs1372AV-293" source="GkxkM57QEwcgZs1372AV-42">
          <mxGeometry width="50" height="50" relative="1" as="geometry">
            <mxPoint x="330" y="745" as="sourcePoint" />
            <mxPoint x="90" y="383" as="targetPoint" />
          </mxGeometry>
        </mxCell>
        <mxCell id="GkxkM57QEwcgZs1372AV-300" value="" style="endArrow=none;html=1;entryX=1;entryY=0.5;entryDx=0;entryDy=0;exitX=0;exitY=0.5;exitDx=0;exitDy=0;strokeWidth=1;rounded=0;strokeColor=#525252;" edge="1" parent="1" target="GkxkM57QEwcgZs1372AV-293" source="GkxkM57QEwcgZs1372AV-44">
          <mxGeometry width="50" height="50" relative="1" as="geometry">
            <mxPoint x="330" y="825" as="sourcePoint" />
            <mxPoint x="120" y="435" as="targetPoint" />
          </mxGeometry>
        </mxCell>
        <mxCell id="GkxkM57QEwcgZs1372AV-301" value="" style="endArrow=none;html=1;entryX=1;entryY=0.5;entryDx=0;entryDy=0;exitX=0;exitY=0.5;exitDx=0;exitDy=0;strokeWidth=1;rounded=0;strokeColor=#525252;" edge="1" parent="1" target="GkxkM57QEwcgZs1372AV-293" source="GkxkM57QEwcgZs1372AV-45">
          <mxGeometry width="50" height="50" relative="1" as="geometry">
            <mxPoint x="330" y="865" as="sourcePoint" />
            <mxPoint x="130" y="445" as="targetPoint" />
          </mxGeometry>
        </mxCell>
        <mxCell id="GkxkM57QEwcgZs1372AV-302" value="" style="endArrow=none;html=1;entryX=1;entryY=0.5;entryDx=0;entryDy=0;exitX=0;exitY=0.5;exitDx=0;exitDy=0;strokeWidth=1;rounded=0;strokeColor=#525252;" edge="1" parent="1" target="GkxkM57QEwcgZs1372AV-293" source="GkxkM57QEwcgZs1372AV-46">
          <mxGeometry width="50" height="50" relative="1" as="geometry">
            <mxPoint x="330" y="905" as="sourcePoint" />
            <mxPoint x="140" y="455" as="targetPoint" />
          </mxGeometry>
        </mxCell>
        <mxCell id="GkxkM57QEwcgZs1372AV-303" value="" style="endArrow=none;html=1;entryX=1;entryY=0.5;entryDx=0;entryDy=0;exitX=0;exitY=0.5;exitDx=0;exitDy=0;strokeWidth=1;rounded=0;strokeColor=#525252;" edge="1" parent="1" target="GkxkM57QEwcgZs1372AV-293" source="GkxkM57QEwcgZs1372AV-36">
          <mxGeometry width="50" height="50" relative="1" as="geometry">
            <mxPoint x="330" y="465" as="sourcePoint" />
            <mxPoint x="150" y="465" as="targetPoint" />
          </mxGeometry>
        </mxCell>
        <mxCell id="GkxkM57QEwcgZs1372AV-304" value="" style="endArrow=none;html=1;entryX=1;entryY=0.5;entryDx=0;entryDy=0;exitX=0;exitY=0.5;exitDx=0;exitDy=0;strokeWidth=1;rounded=0;strokeColor=#525252;" edge="1" parent="1" target="GkxkM57QEwcgZs1372AV-293" source="GkxkM57QEwcgZs1372AV-35">
          <mxGeometry width="50" height="50" relative="1" as="geometry">
            <mxPoint x="330" y="425" as="sourcePoint" />
            <mxPoint x="160" y="475" as="targetPoint" />
          </mxGeometry>
        </mxCell>
        <mxCell id="GkxkM57QEwcgZs1372AV-305" value="" style="endArrow=none;html=1;entryX=1;entryY=0.5;entryDx=0;entryDy=0;exitX=0;exitY=0.5;exitDx=0;exitDy=0;strokeWidth=1;rounded=0;strokeColor=#525252;" edge="1" parent="1" target="GkxkM57QEwcgZs1372AV-293" source="GkxkM57QEwcgZs1372AV-43">
          <mxGeometry width="50" height="50" relative="1" as="geometry">
            <mxPoint x="330" y="785" as="sourcePoint" />
            <mxPoint x="170" y="485" as="targetPoint" />
          </mxGeometry>
        </mxCell>
        <mxCell id="GkxkM57QEwcgZs1372AV-306" value="" style="ellipse;whiteSpace=wrap;html=1;aspect=fixed;allowArrows=0;rounded=0;" vertex="1" parent="1">
          <mxGeometry x="50" y="410" width="20" height="20" as="geometry" />
        </mxCell>
        <mxCell id="GkxkM57QEwcgZs1372AV-307" value="" style="endArrow=none;html=1;entryX=1;entryY=0.5;entryDx=0;entryDy=0;exitX=0;exitY=0.5;exitDx=0;exitDy=0;strokeWidth=1;rounded=0;strokeColor=#525252;" edge="1" parent="1" target="GkxkM57QEwcgZs1372AV-306" source="GkxkM57QEwcgZs1372AV-37">
          <mxGeometry width="50" height="50" relative="1" as="geometry">
            <mxPoint x="330" y="540" as="sourcePoint" />
            <mxPoint x="290" y="748" as="targetPoint" />
          </mxGeometry>
        </mxCell>
        <mxCell id="GkxkM57QEwcgZs1372AV-308" value="" style="endArrow=none;html=1;entryX=1;entryY=0.5;entryDx=0;entryDy=0;exitX=0;exitY=0.5;exitDx=0;exitDy=0;strokeWidth=1;rounded=0;strokeColor=#525252;" edge="1" parent="1" target="GkxkM57QEwcgZs1372AV-306" source="GkxkM57QEwcgZs1372AV-38">
          <mxGeometry width="50" height="50" relative="1" as="geometry">
            <mxPoint x="330" y="580" as="sourcePoint" />
            <mxPoint x="90" y="440" as="targetPoint" />
          </mxGeometry>
        </mxCell>
        <mxCell id="GkxkM57QEwcgZs1372AV-309" value="" style="endArrow=none;html=1;entryX=1;entryY=0.5;entryDx=0;entryDy=0;exitX=0;exitY=0.5;exitDx=0;exitDy=0;strokeWidth=1;rounded=0;strokeColor=#525252;" edge="1" parent="1" target="GkxkM57QEwcgZs1372AV-306" source="GkxkM57QEwcgZs1372AV-39">
          <mxGeometry width="50" height="50" relative="1" as="geometry">
            <mxPoint x="330" y="620" as="sourcePoint" />
            <mxPoint x="80" y="430" as="targetPoint" />
          </mxGeometry>
        </mxCell>
        <mxCell id="GkxkM57QEwcgZs1372AV-310" value="" style="endArrow=none;html=1;entryX=1;entryY=0.5;entryDx=0;entryDy=0;exitX=0;exitY=0.5;exitDx=0;exitDy=0;strokeWidth=1;rounded=0;strokeColor=#525252;" edge="1" parent="1" target="GkxkM57QEwcgZs1372AV-306" source="GkxkM57QEwcgZs1372AV-40">
          <mxGeometry width="50" height="50" relative="1" as="geometry">
            <mxPoint x="330" y="660" as="sourcePoint" />
            <mxPoint x="90" y="440" as="targetPoint" />
          </mxGeometry>
        </mxCell>
        <mxCell id="GkxkM57QEwcgZs1372AV-311" value="" style="endArrow=none;html=1;entryX=1;entryY=0.5;entryDx=0;entryDy=0;exitX=0;exitY=0.5;exitDx=0;exitDy=0;strokeWidth=1;rounded=0;strokeColor=#525252;" edge="1" parent="1" target="GkxkM57QEwcgZs1372AV-306" source="GkxkM57QEwcgZs1372AV-41">
          <mxGeometry width="50" height="50" relative="1" as="geometry">
            <mxPoint x="330" y="740" as="sourcePoint" />
            <mxPoint x="100" y="450" as="targetPoint" />
          </mxGeometry>
        </mxCell>
        <mxCell id="GkxkM57QEwcgZs1372AV-312" value="" style="endArrow=none;html=1;exitX=0;exitY=0.5;exitDx=0;exitDy=0;strokeWidth=1;rounded=0;strokeColor=#525252;entryX=1;entryY=0.5;entryDx=0;entryDy=0;" edge="1" parent="1" target="GkxkM57QEwcgZs1372AV-306" source="GkxkM57QEwcgZs1372AV-42">
          <mxGeometry width="50" height="50" relative="1" as="geometry">
            <mxPoint x="330" y="780" as="sourcePoint" />
            <mxPoint x="90" y="418" as="targetPoint" />
          </mxGeometry>
        </mxCell>
        <mxCell id="GkxkM57QEwcgZs1372AV-313" value="" style="endArrow=none;html=1;entryX=1;entryY=0.5;entryDx=0;entryDy=0;exitX=0;exitY=0.5;exitDx=0;exitDy=0;strokeWidth=1;rounded=0;strokeColor=#525252;" edge="1" parent="1" target="GkxkM57QEwcgZs1372AV-306" source="GkxkM57QEwcgZs1372AV-44">
          <mxGeometry width="50" height="50" relative="1" as="geometry">
            <mxPoint x="330" y="860" as="sourcePoint" />
            <mxPoint x="120" y="470" as="targetPoint" />
          </mxGeometry>
        </mxCell>
        <mxCell id="GkxkM57QEwcgZs1372AV-314" value="" style="endArrow=none;html=1;entryX=1;entryY=0.5;entryDx=0;entryDy=0;exitX=0;exitY=0.5;exitDx=0;exitDy=0;strokeWidth=1;rounded=0;strokeColor=#525252;" edge="1" parent="1" target="GkxkM57QEwcgZs1372AV-306" source="GkxkM57QEwcgZs1372AV-45">
          <mxGeometry width="50" height="50" relative="1" as="geometry">
            <mxPoint x="330" y="900" as="sourcePoint" />
            <mxPoint x="130" y="480" as="targetPoint" />
          </mxGeometry>
        </mxCell>
        <mxCell id="GkxkM57QEwcgZs1372AV-315" value="" style="endArrow=none;html=1;entryX=1;entryY=0.5;entryDx=0;entryDy=0;exitX=0;exitY=0.5;exitDx=0;exitDy=0;strokeWidth=1;rounded=0;strokeColor=#525252;" edge="1" parent="1" target="GkxkM57QEwcgZs1372AV-306" source="GkxkM57QEwcgZs1372AV-46">
          <mxGeometry width="50" height="50" relative="1" as="geometry">
            <mxPoint x="330" y="940" as="sourcePoint" />
            <mxPoint x="140" y="490" as="targetPoint" />
          </mxGeometry>
        </mxCell>
        <mxCell id="GkxkM57QEwcgZs1372AV-316" value="" style="endArrow=none;html=1;entryX=1;entryY=0.5;entryDx=0;entryDy=0;exitX=0;exitY=0.5;exitDx=0;exitDy=0;strokeWidth=1;rounded=0;strokeColor=#525252;" edge="1" parent="1" target="GkxkM57QEwcgZs1372AV-306" source="GkxkM57QEwcgZs1372AV-36">
          <mxGeometry width="50" height="50" relative="1" as="geometry">
            <mxPoint x="330" y="500" as="sourcePoint" />
            <mxPoint x="150" y="500" as="targetPoint" />
          </mxGeometry>
        </mxCell>
        <mxCell id="GkxkM57QEwcgZs1372AV-317" value="" style="endArrow=none;html=1;entryX=1;entryY=0.5;entryDx=0;entryDy=0;exitX=0;exitY=0.5;exitDx=0;exitDy=0;strokeWidth=1;rounded=0;strokeColor=#525252;" edge="1" parent="1" target="GkxkM57QEwcgZs1372AV-306" source="GkxkM57QEwcgZs1372AV-35">
          <mxGeometry width="50" height="50" relative="1" as="geometry">
            <mxPoint x="330" y="460" as="sourcePoint" />
            <mxPoint x="160" y="510" as="targetPoint" />
          </mxGeometry>
        </mxCell>
        <mxCell id="GkxkM57QEwcgZs1372AV-318" value="" style="endArrow=none;html=1;entryX=1;entryY=0.5;entryDx=0;entryDy=0;exitX=0;exitY=0.5;exitDx=0;exitDy=0;strokeWidth=1;rounded=0;strokeColor=#525252;" edge="1" parent="1" target="GkxkM57QEwcgZs1372AV-306" source="GkxkM57QEwcgZs1372AV-43">
          <mxGeometry width="50" height="50" relative="1" as="geometry">
            <mxPoint x="330" y="820" as="sourcePoint" />
            <mxPoint x="170" y="520" as="targetPoint" />
          </mxGeometry>
        </mxCell>
        <mxCell id="GkxkM57QEwcgZs1372AV-319" value="" style="ellipse;whiteSpace=wrap;html=1;aspect=fixed;allowArrows=0;rounded=0;" vertex="1" parent="1">
          <mxGeometry x="50" y="450" width="20" height="20" as="geometry" />
        </mxCell>
        <mxCell id="GkxkM57QEwcgZs1372AV-320" value="" style="endArrow=none;html=1;entryX=1;entryY=0.5;entryDx=0;entryDy=0;exitX=0;exitY=0.5;exitDx=0;exitDy=0;strokeWidth=1;rounded=0;strokeColor=#525252;" edge="1" parent="1" target="GkxkM57QEwcgZs1372AV-319" source="GkxkM57QEwcgZs1372AV-37">
          <mxGeometry width="50" height="50" relative="1" as="geometry">
            <mxPoint x="330" y="579.9999999999999" as="sourcePoint" />
            <mxPoint x="290" y="788" as="targetPoint" />
          </mxGeometry>
        </mxCell>
        <mxCell id="GkxkM57QEwcgZs1372AV-321" value="" style="endArrow=none;html=1;entryX=1;entryY=0.5;entryDx=0;entryDy=0;exitX=0;exitY=0.5;exitDx=0;exitDy=0;strokeWidth=1;rounded=0;strokeColor=#525252;" edge="1" parent="1" target="GkxkM57QEwcgZs1372AV-319" source="GkxkM57QEwcgZs1372AV-38">
          <mxGeometry width="50" height="50" relative="1" as="geometry">
            <mxPoint x="330" y="619.9999999999999" as="sourcePoint" />
            <mxPoint x="90" y="480" as="targetPoint" />
          </mxGeometry>
        </mxCell>
        <mxCell id="GkxkM57QEwcgZs1372AV-322" value="" style="endArrow=none;html=1;entryX=1;entryY=0.5;entryDx=0;entryDy=0;exitX=0;exitY=0.5;exitDx=0;exitDy=0;strokeWidth=1;rounded=0;strokeColor=#525252;" edge="1" parent="1" target="GkxkM57QEwcgZs1372AV-319" source="GkxkM57QEwcgZs1372AV-39">
          <mxGeometry width="50" height="50" relative="1" as="geometry">
            <mxPoint x="330" y="660" as="sourcePoint" />
            <mxPoint x="80" y="470" as="targetPoint" />
          </mxGeometry>
        </mxCell>
        <mxCell id="GkxkM57QEwcgZs1372AV-323" value="" style="endArrow=none;html=1;entryX=1;entryY=0.5;entryDx=0;entryDy=0;exitX=0;exitY=0.5;exitDx=0;exitDy=0;strokeWidth=1;rounded=0;strokeColor=#525252;" edge="1" parent="1" target="GkxkM57QEwcgZs1372AV-319" source="GkxkM57QEwcgZs1372AV-40">
          <mxGeometry width="50" height="50" relative="1" as="geometry">
            <mxPoint x="330" y="700" as="sourcePoint" />
            <mxPoint x="90" y="480" as="targetPoint" />
          </mxGeometry>
        </mxCell>
        <mxCell id="GkxkM57QEwcgZs1372AV-324" value="" style="endArrow=none;html=1;entryX=1;entryY=0.5;entryDx=0;entryDy=0;exitX=0;exitY=0.5;exitDx=0;exitDy=0;strokeWidth=1;rounded=0;strokeColor=#525252;" edge="1" parent="1" target="GkxkM57QEwcgZs1372AV-319" source="GkxkM57QEwcgZs1372AV-41">
          <mxGeometry width="50" height="50" relative="1" as="geometry">
            <mxPoint x="330" y="780" as="sourcePoint" />
            <mxPoint x="100" y="490" as="targetPoint" />
          </mxGeometry>
        </mxCell>
        <mxCell id="GkxkM57QEwcgZs1372AV-325" value="" style="endArrow=none;html=1;exitX=0;exitY=0.5;exitDx=0;exitDy=0;strokeWidth=1;rounded=0;strokeColor=#525252;entryX=1;entryY=0.5;entryDx=0;entryDy=0;" edge="1" parent="1" target="GkxkM57QEwcgZs1372AV-319" source="GkxkM57QEwcgZs1372AV-42">
          <mxGeometry width="50" height="50" relative="1" as="geometry">
            <mxPoint x="330" y="820" as="sourcePoint" />
            <mxPoint x="90" y="458" as="targetPoint" />
          </mxGeometry>
        </mxCell>
        <mxCell id="GkxkM57QEwcgZs1372AV-326" value="" style="endArrow=none;html=1;entryX=1;entryY=0.5;entryDx=0;entryDy=0;exitX=0;exitY=0.5;exitDx=0;exitDy=0;strokeWidth=1;rounded=0;strokeColor=#525252;" edge="1" parent="1" target="GkxkM57QEwcgZs1372AV-319" source="GkxkM57QEwcgZs1372AV-44">
          <mxGeometry width="50" height="50" relative="1" as="geometry">
            <mxPoint x="330" y="900" as="sourcePoint" />
            <mxPoint x="120" y="510" as="targetPoint" />
          </mxGeometry>
        </mxCell>
        <mxCell id="GkxkM57QEwcgZs1372AV-327" value="" style="endArrow=none;html=1;entryX=1;entryY=0.5;entryDx=0;entryDy=0;exitX=0;exitY=0.5;exitDx=0;exitDy=0;strokeWidth=1;rounded=0;strokeColor=#525252;" edge="1" parent="1" target="GkxkM57QEwcgZs1372AV-319" source="GkxkM57QEwcgZs1372AV-45">
          <mxGeometry width="50" height="50" relative="1" as="geometry">
            <mxPoint x="330" y="940" as="sourcePoint" />
            <mxPoint x="130" y="520" as="targetPoint" />
          </mxGeometry>
        </mxCell>
        <mxCell id="GkxkM57QEwcgZs1372AV-328" value="" style="endArrow=none;html=1;entryX=1;entryY=0.5;entryDx=0;entryDy=0;exitX=0;exitY=0.5;exitDx=0;exitDy=0;strokeWidth=1;rounded=0;strokeColor=#525252;" edge="1" parent="1" target="GkxkM57QEwcgZs1372AV-319" source="GkxkM57QEwcgZs1372AV-46">
          <mxGeometry width="50" height="50" relative="1" as="geometry">
            <mxPoint x="330" y="980" as="sourcePoint" />
            <mxPoint x="140" y="530" as="targetPoint" />
          </mxGeometry>
        </mxCell>
        <mxCell id="GkxkM57QEwcgZs1372AV-329" value="" style="endArrow=none;html=1;entryX=1;entryY=0.5;entryDx=0;entryDy=0;exitX=0;exitY=0.5;exitDx=0;exitDy=0;strokeWidth=1;rounded=0;strokeColor=#525252;" edge="1" parent="1" target="GkxkM57QEwcgZs1372AV-319" source="GkxkM57QEwcgZs1372AV-36">
          <mxGeometry width="50" height="50" relative="1" as="geometry">
            <mxPoint x="330" y="539.9999999999999" as="sourcePoint" />
            <mxPoint x="150" y="540" as="targetPoint" />
          </mxGeometry>
        </mxCell>
        <mxCell id="GkxkM57QEwcgZs1372AV-330" value="" style="endArrow=none;html=1;entryX=1;entryY=0.5;entryDx=0;entryDy=0;exitX=0;exitY=0.5;exitDx=0;exitDy=0;strokeWidth=1;rounded=0;strokeColor=#525252;" edge="1" parent="1" target="GkxkM57QEwcgZs1372AV-319" source="GkxkM57QEwcgZs1372AV-35">
          <mxGeometry width="50" height="50" relative="1" as="geometry">
            <mxPoint x="330" y="499.9999999999999" as="sourcePoint" />
            <mxPoint x="160" y="550" as="targetPoint" />
          </mxGeometry>
        </mxCell>
        <mxCell id="GkxkM57QEwcgZs1372AV-331" value="" style="endArrow=none;html=1;entryX=1;entryY=0.5;entryDx=0;entryDy=0;exitX=0;exitY=0.5;exitDx=0;exitDy=0;strokeWidth=1;rounded=0;strokeColor=#525252;" edge="1" parent="1" target="GkxkM57QEwcgZs1372AV-319" source="GkxkM57QEwcgZs1372AV-43">
          <mxGeometry width="50" height="50" relative="1" as="geometry">
            <mxPoint x="330" y="860" as="sourcePoint" />
            <mxPoint x="170" y="560" as="targetPoint" />
          </mxGeometry>
        </mxCell>
        <mxCell id="GkxkM57QEwcgZs1372AV-332" value="" style="ellipse;whiteSpace=wrap;html=1;aspect=fixed;allowArrows=0;rounded=0;" vertex="1" parent="1">
          <mxGeometry x="50" y="490" width="20" height="20" as="geometry" />
        </mxCell>
        <mxCell id="GkxkM57QEwcgZs1372AV-333" value="" style="endArrow=none;html=1;entryX=1;entryY=0.5;entryDx=0;entryDy=0;exitX=0;exitY=0.5;exitDx=0;exitDy=0;strokeWidth=1;rounded=0;strokeColor=#525252;" edge="1" parent="1" target="GkxkM57QEwcgZs1372AV-332" source="GkxkM57QEwcgZs1372AV-37">
          <mxGeometry width="50" height="50" relative="1" as="geometry">
            <mxPoint x="330" y="620" as="sourcePoint" />
            <mxPoint x="290" y="828" as="targetPoint" />
          </mxGeometry>
        </mxCell>
        <mxCell id="GkxkM57QEwcgZs1372AV-334" value="" style="endArrow=none;html=1;entryX=1;entryY=0.5;entryDx=0;entryDy=0;exitX=0;exitY=0.5;exitDx=0;exitDy=0;strokeWidth=1;rounded=0;strokeColor=#525252;" edge="1" parent="1" target="GkxkM57QEwcgZs1372AV-332" source="GkxkM57QEwcgZs1372AV-38">
          <mxGeometry width="50" height="50" relative="1" as="geometry">
            <mxPoint x="330" y="660" as="sourcePoint" />
            <mxPoint x="90" y="520" as="targetPoint" />
          </mxGeometry>
        </mxCell>
        <mxCell id="GkxkM57QEwcgZs1372AV-335" value="" style="endArrow=none;html=1;entryX=1;entryY=0.5;entryDx=0;entryDy=0;exitX=0;exitY=0.5;exitDx=0;exitDy=0;strokeWidth=1;rounded=0;strokeColor=#525252;" edge="1" parent="1" target="GkxkM57QEwcgZs1372AV-332" source="GkxkM57QEwcgZs1372AV-39">
          <mxGeometry width="50" height="50" relative="1" as="geometry">
            <mxPoint x="330" y="700" as="sourcePoint" />
            <mxPoint x="80" y="510" as="targetPoint" />
          </mxGeometry>
        </mxCell>
        <mxCell id="GkxkM57QEwcgZs1372AV-336" value="" style="endArrow=none;html=1;entryX=1;entryY=0.5;entryDx=0;entryDy=0;exitX=0;exitY=0.5;exitDx=0;exitDy=0;strokeWidth=1;rounded=0;strokeColor=#525252;" edge="1" parent="1" target="GkxkM57QEwcgZs1372AV-332" source="GkxkM57QEwcgZs1372AV-40">
          <mxGeometry width="50" height="50" relative="1" as="geometry">
            <mxPoint x="330" y="740" as="sourcePoint" />
            <mxPoint x="90" y="520" as="targetPoint" />
          </mxGeometry>
        </mxCell>
        <mxCell id="GkxkM57QEwcgZs1372AV-337" value="" style="endArrow=none;html=1;entryX=1;entryY=0.5;entryDx=0;entryDy=0;exitX=0;exitY=0.5;exitDx=0;exitDy=0;strokeWidth=1;rounded=0;strokeColor=#525252;" edge="1" parent="1" target="GkxkM57QEwcgZs1372AV-332" source="GkxkM57QEwcgZs1372AV-41">
          <mxGeometry width="50" height="50" relative="1" as="geometry">
            <mxPoint x="330" y="820" as="sourcePoint" />
            <mxPoint x="100" y="530" as="targetPoint" />
          </mxGeometry>
        </mxCell>
        <mxCell id="GkxkM57QEwcgZs1372AV-338" value="" style="endArrow=none;html=1;exitX=0;exitY=0.5;exitDx=0;exitDy=0;strokeWidth=1;rounded=0;strokeColor=#525252;entryX=1;entryY=0.5;entryDx=0;entryDy=0;" edge="1" parent="1" target="GkxkM57QEwcgZs1372AV-332" source="GkxkM57QEwcgZs1372AV-42">
          <mxGeometry width="50" height="50" relative="1" as="geometry">
            <mxPoint x="330" y="860" as="sourcePoint" />
            <mxPoint x="90" y="498" as="targetPoint" />
          </mxGeometry>
        </mxCell>
        <mxCell id="GkxkM57QEwcgZs1372AV-339" value="" style="endArrow=none;html=1;entryX=1;entryY=0.5;entryDx=0;entryDy=0;exitX=0;exitY=0.5;exitDx=0;exitDy=0;strokeWidth=1;rounded=0;strokeColor=#525252;" edge="1" parent="1" target="GkxkM57QEwcgZs1372AV-332" source="GkxkM57QEwcgZs1372AV-44">
          <mxGeometry width="50" height="50" relative="1" as="geometry">
            <mxPoint x="330" y="940" as="sourcePoint" />
            <mxPoint x="120" y="550" as="targetPoint" />
          </mxGeometry>
        </mxCell>
        <mxCell id="GkxkM57QEwcgZs1372AV-340" value="" style="endArrow=none;html=1;entryX=1;entryY=0.5;entryDx=0;entryDy=0;exitX=0;exitY=0.5;exitDx=0;exitDy=0;strokeWidth=1;rounded=0;strokeColor=#525252;" edge="1" parent="1" target="GkxkM57QEwcgZs1372AV-332" source="GkxkM57QEwcgZs1372AV-45">
          <mxGeometry width="50" height="50" relative="1" as="geometry">
            <mxPoint x="330" y="980" as="sourcePoint" />
            <mxPoint x="130" y="560" as="targetPoint" />
          </mxGeometry>
        </mxCell>
        <mxCell id="GkxkM57QEwcgZs1372AV-341" value="" style="endArrow=none;html=1;entryX=1;entryY=0.5;entryDx=0;entryDy=0;exitX=0;exitY=0.5;exitDx=0;exitDy=0;strokeWidth=1;rounded=0;strokeColor=#525252;" edge="1" parent="1" target="GkxkM57QEwcgZs1372AV-332" source="GkxkM57QEwcgZs1372AV-46">
          <mxGeometry width="50" height="50" relative="1" as="geometry">
            <mxPoint x="330" y="1020" as="sourcePoint" />
            <mxPoint x="140" y="570" as="targetPoint" />
          </mxGeometry>
        </mxCell>
        <mxCell id="GkxkM57QEwcgZs1372AV-342" value="" style="endArrow=none;html=1;entryX=1;entryY=0.5;entryDx=0;entryDy=0;strokeWidth=1;rounded=0;strokeColor=#525252;exitX=0;exitY=0.5;exitDx=0;exitDy=0;" edge="1" parent="1" target="GkxkM57QEwcgZs1372AV-332" source="GkxkM57QEwcgZs1372AV-36">
          <mxGeometry width="50" height="50" relative="1" as="geometry">
            <mxPoint x="330" y="570" as="sourcePoint" />
            <mxPoint x="150" y="580" as="targetPoint" />
          </mxGeometry>
        </mxCell>
        <mxCell id="GkxkM57QEwcgZs1372AV-343" value="" style="endArrow=none;html=1;entryX=1;entryY=0.5;entryDx=0;entryDy=0;strokeWidth=1;rounded=0;strokeColor=#525252;exitX=0;exitY=0.5;exitDx=0;exitDy=0;" edge="1" parent="1" target="GkxkM57QEwcgZs1372AV-332" source="GkxkM57QEwcgZs1372AV-35">
          <mxGeometry width="50" height="50" relative="1" as="geometry">
            <mxPoint x="330" y="530" as="sourcePoint" />
            <mxPoint x="160" y="590" as="targetPoint" />
          </mxGeometry>
        </mxCell>
        <mxCell id="GkxkM57QEwcgZs1372AV-344" value="" style="endArrow=none;html=1;entryX=1;entryY=0.5;entryDx=0;entryDy=0;exitX=0;exitY=0.5;exitDx=0;exitDy=0;strokeWidth=1;rounded=0;strokeColor=#525252;" edge="1" parent="1" target="GkxkM57QEwcgZs1372AV-332" source="GkxkM57QEwcgZs1372AV-43">
          <mxGeometry width="50" height="50" relative="1" as="geometry">
            <mxPoint x="330" y="900" as="sourcePoint" />
            <mxPoint x="170" y="600" as="targetPoint" />
          </mxGeometry>
        </mxCell>
        <mxCell id="GkxkM57QEwcgZs1372AV-345" value="" style="ellipse;whiteSpace=wrap;html=1;aspect=fixed;allowArrows=0;rounded=0;" vertex="1" parent="1">
          <mxGeometry x="50" y="530" width="20" height="20" as="geometry" />
        </mxCell>
        <mxCell id="GkxkM57QEwcgZs1372AV-346" value="" style="endArrow=none;html=1;entryX=1;entryY=0.5;entryDx=0;entryDy=0;exitX=0;exitY=0.5;exitDx=0;exitDy=0;strokeWidth=1;rounded=0;strokeColor=#525252;" edge="1" parent="1" target="GkxkM57QEwcgZs1372AV-345" source="GkxkM57QEwcgZs1372AV-37">
          <mxGeometry width="50" height="50" relative="1" as="geometry">
            <mxPoint x="330" y="660" as="sourcePoint" />
            <mxPoint x="290" y="868" as="targetPoint" />
          </mxGeometry>
        </mxCell>
        <mxCell id="GkxkM57QEwcgZs1372AV-347" value="" style="endArrow=none;html=1;entryX=1;entryY=0.5;entryDx=0;entryDy=0;exitX=0;exitY=0.5;exitDx=0;exitDy=0;strokeWidth=1;rounded=0;strokeColor=#525252;" edge="1" parent="1" target="GkxkM57QEwcgZs1372AV-345" source="GkxkM57QEwcgZs1372AV-38">
          <mxGeometry width="50" height="50" relative="1" as="geometry">
            <mxPoint x="330" y="700" as="sourcePoint" />
            <mxPoint x="90" y="560" as="targetPoint" />
          </mxGeometry>
        </mxCell>
        <mxCell id="GkxkM57QEwcgZs1372AV-348" value="" style="endArrow=none;html=1;entryX=1;entryY=0.5;entryDx=0;entryDy=0;exitX=0;exitY=0.5;exitDx=0;exitDy=0;strokeWidth=1;rounded=0;strokeColor=#525252;" edge="1" parent="1" target="GkxkM57QEwcgZs1372AV-345" source="GkxkM57QEwcgZs1372AV-39">
          <mxGeometry width="50" height="50" relative="1" as="geometry">
            <mxPoint x="330" y="740" as="sourcePoint" />
            <mxPoint x="80" y="550" as="targetPoint" />
          </mxGeometry>
        </mxCell>
        <mxCell id="GkxkM57QEwcgZs1372AV-349" value="" style="endArrow=none;html=1;entryX=1;entryY=0.5;entryDx=0;entryDy=0;exitX=0;exitY=0.5;exitDx=0;exitDy=0;strokeWidth=1;rounded=0;strokeColor=#525252;" edge="1" parent="1" target="GkxkM57QEwcgZs1372AV-345" source="GkxkM57QEwcgZs1372AV-40">
          <mxGeometry width="50" height="50" relative="1" as="geometry">
            <mxPoint x="330" y="780" as="sourcePoint" />
            <mxPoint x="90" y="560" as="targetPoint" />
          </mxGeometry>
        </mxCell>
        <mxCell id="GkxkM57QEwcgZs1372AV-350" value="" style="endArrow=none;html=1;entryX=1;entryY=0.5;entryDx=0;entryDy=0;exitX=0;exitY=0.5;exitDx=0;exitDy=0;strokeWidth=1;rounded=0;strokeColor=#525252;" edge="1" parent="1" target="GkxkM57QEwcgZs1372AV-345" source="GkxkM57QEwcgZs1372AV-41">
          <mxGeometry width="50" height="50" relative="1" as="geometry">
            <mxPoint x="330" y="860" as="sourcePoint" />
            <mxPoint x="100" y="570" as="targetPoint" />
          </mxGeometry>
        </mxCell>
        <mxCell id="GkxkM57QEwcgZs1372AV-351" value="" style="endArrow=none;html=1;exitX=0;exitY=0.5;exitDx=0;exitDy=0;strokeWidth=1;rounded=0;strokeColor=#525252;entryX=1;entryY=0.5;entryDx=0;entryDy=0;" edge="1" parent="1" target="GkxkM57QEwcgZs1372AV-345" source="GkxkM57QEwcgZs1372AV-42">
          <mxGeometry width="50" height="50" relative="1" as="geometry">
            <mxPoint x="330" y="900" as="sourcePoint" />
            <mxPoint x="90" y="538" as="targetPoint" />
          </mxGeometry>
        </mxCell>
        <mxCell id="GkxkM57QEwcgZs1372AV-352" value="" style="endArrow=none;html=1;entryX=1;entryY=0.5;entryDx=0;entryDy=0;strokeWidth=1;rounded=0;strokeColor=#525252;exitX=0;exitY=0.5;exitDx=0;exitDy=0;" edge="1" parent="1" target="GkxkM57QEwcgZs1372AV-345" source="GkxkM57QEwcgZs1372AV-44">
          <mxGeometry width="50" height="50" relative="1" as="geometry">
            <mxPoint x="370" y="610" as="sourcePoint" />
            <mxPoint x="120" y="590" as="targetPoint" />
          </mxGeometry>
        </mxCell>
        <mxCell id="GkxkM57QEwcgZs1372AV-353" value="" style="endArrow=none;html=1;entryX=1;entryY=0.5;entryDx=0;entryDy=0;exitX=0;exitY=0.5;exitDx=0;exitDy=0;strokeWidth=1;rounded=0;strokeColor=#525252;" edge="1" parent="1" target="GkxkM57QEwcgZs1372AV-345" source="GkxkM57QEwcgZs1372AV-45">
          <mxGeometry width="50" height="50" relative="1" as="geometry">
            <mxPoint x="330" y="1020" as="sourcePoint" />
            <mxPoint x="130" y="600" as="targetPoint" />
          </mxGeometry>
        </mxCell>
        <mxCell id="GkxkM57QEwcgZs1372AV-354" value="" style="endArrow=none;html=1;entryX=1;entryY=0.5;entryDx=0;entryDy=0;exitX=0;exitY=0.5;exitDx=0;exitDy=0;strokeWidth=1;rounded=0;strokeColor=#525252;" edge="1" parent="1" target="GkxkM57QEwcgZs1372AV-345" source="GkxkM57QEwcgZs1372AV-46">
          <mxGeometry width="50" height="50" relative="1" as="geometry">
            <mxPoint x="330" y="1060" as="sourcePoint" />
            <mxPoint x="140" y="610" as="targetPoint" />
          </mxGeometry>
        </mxCell>
        <mxCell id="GkxkM57QEwcgZs1372AV-355" value="" style="endArrow=none;html=1;entryX=1;entryY=0.5;entryDx=0;entryDy=0;exitX=0;exitY=0.5;exitDx=0;exitDy=0;strokeWidth=1;rounded=0;strokeColor=#525252;" edge="1" parent="1" target="GkxkM57QEwcgZs1372AV-345" source="GkxkM57QEwcgZs1372AV-36">
          <mxGeometry width="50" height="50" relative="1" as="geometry">
            <mxPoint x="330" y="620" as="sourcePoint" />
            <mxPoint x="150" y="620" as="targetPoint" />
          </mxGeometry>
        </mxCell>
        <mxCell id="GkxkM57QEwcgZs1372AV-356" value="" style="endArrow=none;html=1;entryX=1;entryY=0.5;entryDx=0;entryDy=0;exitX=0;exitY=0.5;exitDx=0;exitDy=0;strokeWidth=1;rounded=0;strokeColor=#525252;" edge="1" parent="1" target="GkxkM57QEwcgZs1372AV-345" source="GkxkM57QEwcgZs1372AV-35">
          <mxGeometry width="50" height="50" relative="1" as="geometry">
            <mxPoint x="330" y="580" as="sourcePoint" />
            <mxPoint x="160" y="630" as="targetPoint" />
          </mxGeometry>
        </mxCell>
        <mxCell id="GkxkM57QEwcgZs1372AV-357" value="" style="endArrow=none;html=1;entryX=1;entryY=0.5;entryDx=0;entryDy=0;strokeWidth=1;rounded=0;strokeColor=#525252;exitX=0;exitY=0.5;exitDx=0;exitDy=0;" edge="1" parent="1" target="GkxkM57QEwcgZs1372AV-345" source="GkxkM57QEwcgZs1372AV-43">
          <mxGeometry width="50" height="50" relative="1" as="geometry">
            <mxPoint x="330" y="950" as="sourcePoint" />
            <mxPoint x="170" y="640" as="targetPoint" />
          </mxGeometry>
        </mxCell>
        <mxCell id="GkxkM57QEwcgZs1372AV-358" value="" style="ellipse;whiteSpace=wrap;html=1;aspect=fixed;allowArrows=0;rounded=0;" vertex="1" parent="1">
          <mxGeometry x="50" y="570" width="20" height="20" as="geometry" />
        </mxCell>
        <mxCell id="GkxkM57QEwcgZs1372AV-359" value="" style="endArrow=none;html=1;entryX=1;entryY=0.5;entryDx=0;entryDy=0;exitX=0;exitY=0.5;exitDx=0;exitDy=0;strokeWidth=1;rounded=0;strokeColor=#525252;" edge="1" parent="1" target="GkxkM57QEwcgZs1372AV-358" source="GkxkM57QEwcgZs1372AV-37">
          <mxGeometry width="50" height="50" relative="1" as="geometry">
            <mxPoint x="330" y="700" as="sourcePoint" />
            <mxPoint x="290" y="908" as="targetPoint" />
          </mxGeometry>
        </mxCell>
        <mxCell id="GkxkM57QEwcgZs1372AV-360" value="" style="endArrow=none;html=1;entryX=1;entryY=0.5;entryDx=0;entryDy=0;exitX=0;exitY=0.5;exitDx=0;exitDy=0;strokeWidth=1;rounded=0;strokeColor=#525252;" edge="1" parent="1" target="GkxkM57QEwcgZs1372AV-358" source="GkxkM57QEwcgZs1372AV-38">
          <mxGeometry width="50" height="50" relative="1" as="geometry">
            <mxPoint x="330" y="740" as="sourcePoint" />
            <mxPoint x="90" y="600" as="targetPoint" />
          </mxGeometry>
        </mxCell>
        <mxCell id="GkxkM57QEwcgZs1372AV-361" value="" style="endArrow=none;html=1;entryX=1;entryY=0.5;entryDx=0;entryDy=0;exitX=0;exitY=0.5;exitDx=0;exitDy=0;strokeWidth=1;rounded=0;strokeColor=#525252;" edge="1" parent="1" target="GkxkM57QEwcgZs1372AV-358" source="GkxkM57QEwcgZs1372AV-39">
          <mxGeometry width="50" height="50" relative="1" as="geometry">
            <mxPoint x="330" y="780" as="sourcePoint" />
            <mxPoint x="80" y="590" as="targetPoint" />
          </mxGeometry>
        </mxCell>
        <mxCell id="GkxkM57QEwcgZs1372AV-362" value="" style="endArrow=none;html=1;entryX=1;entryY=0.5;entryDx=0;entryDy=0;exitX=0;exitY=0.5;exitDx=0;exitDy=0;strokeWidth=1;rounded=0;strokeColor=#525252;" edge="1" parent="1" target="GkxkM57QEwcgZs1372AV-358" source="GkxkM57QEwcgZs1372AV-40">
          <mxGeometry width="50" height="50" relative="1" as="geometry">
            <mxPoint x="330" y="820" as="sourcePoint" />
            <mxPoint x="90" y="600" as="targetPoint" />
          </mxGeometry>
        </mxCell>
        <mxCell id="GkxkM57QEwcgZs1372AV-363" value="" style="endArrow=none;html=1;entryX=1;entryY=0.5;entryDx=0;entryDy=0;exitX=0;exitY=0.5;exitDx=0;exitDy=0;strokeWidth=1;rounded=0;strokeColor=#525252;" edge="1" parent="1" target="GkxkM57QEwcgZs1372AV-358" source="GkxkM57QEwcgZs1372AV-41">
          <mxGeometry width="50" height="50" relative="1" as="geometry">
            <mxPoint x="330" y="900" as="sourcePoint" />
            <mxPoint x="100" y="610" as="targetPoint" />
          </mxGeometry>
        </mxCell>
        <mxCell id="GkxkM57QEwcgZs1372AV-364" value="" style="endArrow=none;html=1;exitX=0;exitY=0.5;exitDx=0;exitDy=0;strokeWidth=1;rounded=0;strokeColor=#525252;entryX=1;entryY=0.5;entryDx=0;entryDy=0;" edge="1" parent="1" target="GkxkM57QEwcgZs1372AV-358" source="GkxkM57QEwcgZs1372AV-42">
          <mxGeometry width="50" height="50" relative="1" as="geometry">
            <mxPoint x="330" y="940" as="sourcePoint" />
            <mxPoint x="90" y="578" as="targetPoint" />
          </mxGeometry>
        </mxCell>
        <mxCell id="GkxkM57QEwcgZs1372AV-365" value="" style="endArrow=none;html=1;entryX=1;entryY=0.5;entryDx=0;entryDy=0;exitX=0;exitY=0.5;exitDx=0;exitDy=0;strokeWidth=1;rounded=0;strokeColor=#525252;" edge="1" parent="1" target="GkxkM57QEwcgZs1372AV-358" source="GkxkM57QEwcgZs1372AV-44">
          <mxGeometry width="50" height="50" relative="1" as="geometry">
            <mxPoint x="330" y="1020" as="sourcePoint" />
            <mxPoint x="120" y="630" as="targetPoint" />
          </mxGeometry>
        </mxCell>
        <mxCell id="GkxkM57QEwcgZs1372AV-366" value="" style="endArrow=none;html=1;entryX=1;entryY=0.5;entryDx=0;entryDy=0;exitX=0;exitY=0.5;exitDx=0;exitDy=0;strokeWidth=1;rounded=0;strokeColor=#525252;" edge="1" parent="1" target="GkxkM57QEwcgZs1372AV-358" source="GkxkM57QEwcgZs1372AV-45">
          <mxGeometry width="50" height="50" relative="1" as="geometry">
            <mxPoint x="330" y="1060" as="sourcePoint" />
            <mxPoint x="130" y="640" as="targetPoint" />
          </mxGeometry>
        </mxCell>
        <mxCell id="GkxkM57QEwcgZs1372AV-367" value="" style="endArrow=none;html=1;entryX=1;entryY=0.5;entryDx=0;entryDy=0;exitX=0;exitY=0.5;exitDx=0;exitDy=0;strokeWidth=1;rounded=0;strokeColor=#525252;" edge="1" parent="1" target="GkxkM57QEwcgZs1372AV-358" source="GkxkM57QEwcgZs1372AV-46">
          <mxGeometry width="50" height="50" relative="1" as="geometry">
            <mxPoint x="330" y="1100" as="sourcePoint" />
            <mxPoint x="140" y="650" as="targetPoint" />
          </mxGeometry>
        </mxCell>
        <mxCell id="GkxkM57QEwcgZs1372AV-368" value="" style="endArrow=none;html=1;entryX=1;entryY=0.5;entryDx=0;entryDy=0;exitX=0;exitY=0.5;exitDx=0;exitDy=0;strokeWidth=1;rounded=0;strokeColor=#525252;" edge="1" parent="1" target="GkxkM57QEwcgZs1372AV-358" source="GkxkM57QEwcgZs1372AV-36">
          <mxGeometry width="50" height="50" relative="1" as="geometry">
            <mxPoint x="330" y="660" as="sourcePoint" />
            <mxPoint x="150" y="660" as="targetPoint" />
          </mxGeometry>
        </mxCell>
        <mxCell id="GkxkM57QEwcgZs1372AV-369" value="" style="endArrow=none;html=1;entryX=1;entryY=0.5;entryDx=0;entryDy=0;exitX=0;exitY=0.5;exitDx=0;exitDy=0;strokeWidth=1;rounded=0;strokeColor=#525252;" edge="1" parent="1" target="GkxkM57QEwcgZs1372AV-358" source="GkxkM57QEwcgZs1372AV-35">
          <mxGeometry width="50" height="50" relative="1" as="geometry">
            <mxPoint x="330" y="620" as="sourcePoint" />
            <mxPoint x="160" y="670" as="targetPoint" />
          </mxGeometry>
        </mxCell>
        <mxCell id="GkxkM57QEwcgZs1372AV-370" value="" style="endArrow=none;html=1;entryX=1;entryY=0.5;entryDx=0;entryDy=0;exitX=0;exitY=0.5;exitDx=0;exitDy=0;strokeWidth=1;rounded=0;strokeColor=#525252;" edge="1" parent="1" target="GkxkM57QEwcgZs1372AV-358" source="GkxkM57QEwcgZs1372AV-43">
          <mxGeometry width="50" height="50" relative="1" as="geometry">
            <mxPoint x="330" y="980" as="sourcePoint" />
            <mxPoint x="170" y="680" as="targetPoint" />
          </mxGeometry>
        </mxCell>
        <mxCell id="GkxkM57QEwcgZs1372AV-371" value="" style="ellipse;whiteSpace=wrap;html=1;aspect=fixed;allowArrows=0;rounded=0;" vertex="1" parent="1">
          <mxGeometry x="50" y="610" width="20" height="20" as="geometry" />
        </mxCell>
        <mxCell id="GkxkM57QEwcgZs1372AV-372" value="" style="endArrow=none;html=1;entryX=1;entryY=0.5;entryDx=0;entryDy=0;exitX=0;exitY=0.5;exitDx=0;exitDy=0;strokeWidth=1;rounded=0;strokeColor=#525252;" edge="1" parent="1" target="GkxkM57QEwcgZs1372AV-371" source="GkxkM57QEwcgZs1372AV-37">
          <mxGeometry width="50" height="50" relative="1" as="geometry">
            <mxPoint x="330" y="740" as="sourcePoint" />
            <mxPoint x="290" y="948" as="targetPoint" />
          </mxGeometry>
        </mxCell>
        <mxCell id="GkxkM57QEwcgZs1372AV-373" value="" style="endArrow=none;html=1;entryX=1;entryY=0.5;entryDx=0;entryDy=0;exitX=0;exitY=0.5;exitDx=0;exitDy=0;strokeWidth=1;rounded=0;strokeColor=#525252;" edge="1" parent="1" target="GkxkM57QEwcgZs1372AV-371" source="GkxkM57QEwcgZs1372AV-38">
          <mxGeometry width="50" height="50" relative="1" as="geometry">
            <mxPoint x="330" y="780" as="sourcePoint" />
            <mxPoint x="90" y="640" as="targetPoint" />
          </mxGeometry>
        </mxCell>
        <mxCell id="GkxkM57QEwcgZs1372AV-374" value="" style="endArrow=none;html=1;entryX=1;entryY=0.5;entryDx=0;entryDy=0;exitX=0;exitY=0.5;exitDx=0;exitDy=0;strokeWidth=1;rounded=0;strokeColor=#525252;" edge="1" parent="1" target="GkxkM57QEwcgZs1372AV-371" source="GkxkM57QEwcgZs1372AV-39">
          <mxGeometry width="50" height="50" relative="1" as="geometry">
            <mxPoint x="330" y="820" as="sourcePoint" />
            <mxPoint x="80" y="630" as="targetPoint" />
          </mxGeometry>
        </mxCell>
        <mxCell id="GkxkM57QEwcgZs1372AV-375" value="" style="endArrow=none;html=1;entryX=1;entryY=0.5;entryDx=0;entryDy=0;exitX=0;exitY=0.5;exitDx=0;exitDy=0;strokeWidth=1;rounded=0;strokeColor=#525252;" edge="1" parent="1" target="GkxkM57QEwcgZs1372AV-371" source="GkxkM57QEwcgZs1372AV-40">
          <mxGeometry width="50" height="50" relative="1" as="geometry">
            <mxPoint x="330" y="860" as="sourcePoint" />
            <mxPoint x="90" y="640" as="targetPoint" />
          </mxGeometry>
        </mxCell>
        <mxCell id="GkxkM57QEwcgZs1372AV-376" value="" style="endArrow=none;html=1;entryX=1;entryY=0.5;entryDx=0;entryDy=0;exitX=0;exitY=0.5;exitDx=0;exitDy=0;strokeWidth=1;rounded=0;strokeColor=#525252;" edge="1" parent="1" target="GkxkM57QEwcgZs1372AV-371" source="GkxkM57QEwcgZs1372AV-41">
          <mxGeometry width="50" height="50" relative="1" as="geometry">
            <mxPoint x="330" y="940" as="sourcePoint" />
            <mxPoint x="100" y="650" as="targetPoint" />
          </mxGeometry>
        </mxCell>
        <mxCell id="GkxkM57QEwcgZs1372AV-377" value="" style="endArrow=none;html=1;exitX=0;exitY=0.5;exitDx=0;exitDy=0;strokeWidth=1;rounded=0;strokeColor=#525252;entryX=1;entryY=0.5;entryDx=0;entryDy=0;" edge="1" parent="1" target="GkxkM57QEwcgZs1372AV-371" source="GkxkM57QEwcgZs1372AV-42">
          <mxGeometry width="50" height="50" relative="1" as="geometry">
            <mxPoint x="330" y="980" as="sourcePoint" />
            <mxPoint x="90" y="618" as="targetPoint" />
          </mxGeometry>
        </mxCell>
        <mxCell id="GkxkM57QEwcgZs1372AV-378" value="" style="endArrow=none;html=1;entryX=1;entryY=0.5;entryDx=0;entryDy=0;exitX=0;exitY=0.5;exitDx=0;exitDy=0;strokeWidth=1;rounded=0;strokeColor=#525252;" edge="1" parent="1" target="GkxkM57QEwcgZs1372AV-371" source="GkxkM57QEwcgZs1372AV-44">
          <mxGeometry width="50" height="50" relative="1" as="geometry">
            <mxPoint x="330" y="1060" as="sourcePoint" />
            <mxPoint x="120" y="670" as="targetPoint" />
          </mxGeometry>
        </mxCell>
        <mxCell id="GkxkM57QEwcgZs1372AV-379" value="" style="endArrow=none;html=1;entryX=1;entryY=0.5;entryDx=0;entryDy=0;exitX=0;exitY=0.5;exitDx=0;exitDy=0;strokeWidth=1;rounded=0;strokeColor=#525252;" edge="1" parent="1" target="GkxkM57QEwcgZs1372AV-371" source="GkxkM57QEwcgZs1372AV-45">
          <mxGeometry width="50" height="50" relative="1" as="geometry">
            <mxPoint x="330" y="1100" as="sourcePoint" />
            <mxPoint x="130" y="680" as="targetPoint" />
          </mxGeometry>
        </mxCell>
        <mxCell id="GkxkM57QEwcgZs1372AV-380" value="" style="endArrow=none;html=1;entryX=1;entryY=0.5;entryDx=0;entryDy=0;exitX=0;exitY=0.5;exitDx=0;exitDy=0;strokeWidth=1;rounded=0;strokeColor=#525252;" edge="1" parent="1" target="GkxkM57QEwcgZs1372AV-371" source="GkxkM57QEwcgZs1372AV-46">
          <mxGeometry width="50" height="50" relative="1" as="geometry">
            <mxPoint x="330" y="1140" as="sourcePoint" />
            <mxPoint x="140" y="690" as="targetPoint" />
          </mxGeometry>
        </mxCell>
        <mxCell id="GkxkM57QEwcgZs1372AV-381" value="" style="endArrow=none;html=1;entryX=1;entryY=0.5;entryDx=0;entryDy=0;exitX=0;exitY=0.5;exitDx=0;exitDy=0;strokeWidth=1;rounded=0;strokeColor=#525252;" edge="1" parent="1" target="GkxkM57QEwcgZs1372AV-371" source="GkxkM57QEwcgZs1372AV-36">
          <mxGeometry width="50" height="50" relative="1" as="geometry">
            <mxPoint x="330" y="700" as="sourcePoint" />
            <mxPoint x="150" y="700" as="targetPoint" />
          </mxGeometry>
        </mxCell>
        <mxCell id="GkxkM57QEwcgZs1372AV-382" value="" style="endArrow=none;html=1;entryX=1;entryY=0.5;entryDx=0;entryDy=0;exitX=0;exitY=0.5;exitDx=0;exitDy=0;strokeWidth=1;rounded=0;strokeColor=#525252;" edge="1" parent="1" target="GkxkM57QEwcgZs1372AV-371" source="GkxkM57QEwcgZs1372AV-35">
          <mxGeometry width="50" height="50" relative="1" as="geometry">
            <mxPoint x="330" y="660" as="sourcePoint" />
            <mxPoint x="160" y="710" as="targetPoint" />
          </mxGeometry>
        </mxCell>
        <mxCell id="GkxkM57QEwcgZs1372AV-383" value="" style="endArrow=none;html=1;entryX=1;entryY=0.5;entryDx=0;entryDy=0;exitX=0;exitY=0.5;exitDx=0;exitDy=0;strokeWidth=1;rounded=0;strokeColor=#525252;" edge="1" parent="1" target="GkxkM57QEwcgZs1372AV-371" source="GkxkM57QEwcgZs1372AV-43">
          <mxGeometry width="50" height="50" relative="1" as="geometry">
            <mxPoint x="330" y="1020" as="sourcePoint" />
            <mxPoint x="170" y="720" as="targetPoint" />
          </mxGeometry>
        </mxCell>
        <mxCell id="GkxkM57QEwcgZs1372AV-384" value="" style="ellipse;whiteSpace=wrap;html=1;aspect=fixed;allowArrows=0;rounded=0;" vertex="1" parent="1">
          <mxGeometry x="50" y="650" width="20" height="20" as="geometry" />
        </mxCell>
        <mxCell id="GkxkM57QEwcgZs1372AV-385" value="" style="endArrow=none;html=1;entryX=1;entryY=0.5;entryDx=0;entryDy=0;exitX=0;exitY=0.5;exitDx=0;exitDy=0;strokeWidth=1;rounded=0;strokeColor=#525252;" edge="1" parent="1" target="GkxkM57QEwcgZs1372AV-384" source="GkxkM57QEwcgZs1372AV-37">
          <mxGeometry width="50" height="50" relative="1" as="geometry">
            <mxPoint x="330" y="780" as="sourcePoint" />
            <mxPoint x="290" y="988" as="targetPoint" />
          </mxGeometry>
        </mxCell>
        <mxCell id="GkxkM57QEwcgZs1372AV-386" value="" style="endArrow=none;html=1;entryX=1;entryY=0.5;entryDx=0;entryDy=0;exitX=0;exitY=0.5;exitDx=0;exitDy=0;strokeWidth=1;rounded=0;strokeColor=#525252;" edge="1" parent="1" target="GkxkM57QEwcgZs1372AV-384" source="GkxkM57QEwcgZs1372AV-38">
          <mxGeometry width="50" height="50" relative="1" as="geometry">
            <mxPoint x="330" y="820" as="sourcePoint" />
            <mxPoint x="90" y="680" as="targetPoint" />
          </mxGeometry>
        </mxCell>
        <mxCell id="GkxkM57QEwcgZs1372AV-387" value="" style="endArrow=none;html=1;entryX=1;entryY=0.5;entryDx=0;entryDy=0;exitX=0;exitY=0.5;exitDx=0;exitDy=0;strokeWidth=1;rounded=0;strokeColor=#525252;" edge="1" parent="1" target="GkxkM57QEwcgZs1372AV-384" source="GkxkM57QEwcgZs1372AV-39">
          <mxGeometry width="50" height="50" relative="1" as="geometry">
            <mxPoint x="330" y="860" as="sourcePoint" />
            <mxPoint x="80" y="670" as="targetPoint" />
          </mxGeometry>
        </mxCell>
        <mxCell id="GkxkM57QEwcgZs1372AV-388" value="" style="endArrow=none;html=1;entryX=1;entryY=0.5;entryDx=0;entryDy=0;exitX=0;exitY=0.5;exitDx=0;exitDy=0;strokeWidth=1;rounded=0;strokeColor=#525252;" edge="1" parent="1" target="GkxkM57QEwcgZs1372AV-384" source="GkxkM57QEwcgZs1372AV-40">
          <mxGeometry width="50" height="50" relative="1" as="geometry">
            <mxPoint x="330" y="900" as="sourcePoint" />
            <mxPoint x="90" y="680" as="targetPoint" />
          </mxGeometry>
        </mxCell>
        <mxCell id="GkxkM57QEwcgZs1372AV-389" value="" style="endArrow=none;html=1;entryX=1;entryY=0.5;entryDx=0;entryDy=0;exitX=0;exitY=0.5;exitDx=0;exitDy=0;strokeWidth=1;rounded=0;strokeColor=#525252;" edge="1" parent="1" target="GkxkM57QEwcgZs1372AV-384" source="GkxkM57QEwcgZs1372AV-41">
          <mxGeometry width="50" height="50" relative="1" as="geometry">
            <mxPoint x="330" y="980" as="sourcePoint" />
            <mxPoint x="100" y="690" as="targetPoint" />
          </mxGeometry>
        </mxCell>
        <mxCell id="GkxkM57QEwcgZs1372AV-390" value="" style="endArrow=none;html=1;exitX=0;exitY=0.5;exitDx=0;exitDy=0;strokeWidth=1;rounded=0;strokeColor=#525252;entryX=1;entryY=0.5;entryDx=0;entryDy=0;" edge="1" parent="1" target="GkxkM57QEwcgZs1372AV-384" source="GkxkM57QEwcgZs1372AV-42">
          <mxGeometry width="50" height="50" relative="1" as="geometry">
            <mxPoint x="330" y="1020" as="sourcePoint" />
            <mxPoint x="90" y="658" as="targetPoint" />
          </mxGeometry>
        </mxCell>
        <mxCell id="GkxkM57QEwcgZs1372AV-391" value="" style="endArrow=none;html=1;entryX=1;entryY=0.5;entryDx=0;entryDy=0;exitX=0;exitY=0.5;exitDx=0;exitDy=0;strokeWidth=1;rounded=0;strokeColor=#525252;" edge="1" parent="1" target="GkxkM57QEwcgZs1372AV-384" source="GkxkM57QEwcgZs1372AV-44">
          <mxGeometry width="50" height="50" relative="1" as="geometry">
            <mxPoint x="330" y="1100" as="sourcePoint" />
            <mxPoint x="120" y="710" as="targetPoint" />
          </mxGeometry>
        </mxCell>
        <mxCell id="GkxkM57QEwcgZs1372AV-392" value="" style="endArrow=none;html=1;entryX=1;entryY=0.5;entryDx=0;entryDy=0;exitX=0;exitY=0.5;exitDx=0;exitDy=0;strokeWidth=1;rounded=0;strokeColor=#525252;" edge="1" parent="1" target="GkxkM57QEwcgZs1372AV-384" source="GkxkM57QEwcgZs1372AV-45">
          <mxGeometry width="50" height="50" relative="1" as="geometry">
            <mxPoint x="330" y="1140" as="sourcePoint" />
            <mxPoint x="130" y="720" as="targetPoint" />
          </mxGeometry>
        </mxCell>
        <mxCell id="GkxkM57QEwcgZs1372AV-393" value="" style="endArrow=none;html=1;entryX=1;entryY=0.5;entryDx=0;entryDy=0;exitX=0;exitY=0.5;exitDx=0;exitDy=0;strokeWidth=1;rounded=0;strokeColor=#525252;" edge="1" parent="1" target="GkxkM57QEwcgZs1372AV-384" source="GkxkM57QEwcgZs1372AV-46">
          <mxGeometry width="50" height="50" relative="1" as="geometry">
            <mxPoint x="330" y="1180" as="sourcePoint" />
            <mxPoint x="140" y="730" as="targetPoint" />
          </mxGeometry>
        </mxCell>
        <mxCell id="GkxkM57QEwcgZs1372AV-394" value="" style="endArrow=none;html=1;entryX=1;entryY=0.5;entryDx=0;entryDy=0;exitX=0;exitY=0.5;exitDx=0;exitDy=0;strokeWidth=1;rounded=0;strokeColor=#525252;" edge="1" parent="1" target="GkxkM57QEwcgZs1372AV-384" source="GkxkM57QEwcgZs1372AV-36">
          <mxGeometry width="50" height="50" relative="1" as="geometry">
            <mxPoint x="330" y="740" as="sourcePoint" />
            <mxPoint x="150" y="740" as="targetPoint" />
          </mxGeometry>
        </mxCell>
        <mxCell id="GkxkM57QEwcgZs1372AV-395" value="" style="endArrow=none;html=1;entryX=1;entryY=0.5;entryDx=0;entryDy=0;exitX=0;exitY=0.5;exitDx=0;exitDy=0;strokeWidth=1;rounded=0;strokeColor=#525252;" edge="1" parent="1" target="GkxkM57QEwcgZs1372AV-384" source="GkxkM57QEwcgZs1372AV-35">
          <mxGeometry width="50" height="50" relative="1" as="geometry">
            <mxPoint x="330" y="700" as="sourcePoint" />
            <mxPoint x="160" y="750" as="targetPoint" />
          </mxGeometry>
        </mxCell>
        <mxCell id="GkxkM57QEwcgZs1372AV-396" value="" style="endArrow=none;html=1;entryX=1;entryY=0.5;entryDx=0;entryDy=0;exitX=0;exitY=0.5;exitDx=0;exitDy=0;strokeWidth=1;rounded=0;strokeColor=#525252;" edge="1" parent="1" target="GkxkM57QEwcgZs1372AV-384" source="GkxkM57QEwcgZs1372AV-43">
          <mxGeometry width="50" height="50" relative="1" as="geometry">
            <mxPoint x="330" y="1060" as="sourcePoint" />
            <mxPoint x="170" y="760" as="targetPoint" />
          </mxGeometry>
        </mxCell>
        <mxCell id="GkxkM57QEwcgZs1372AV-397" value="" style="ellipse;whiteSpace=wrap;html=1;aspect=fixed;rounded=0;" vertex="1" parent="1">
          <mxGeometry x="480" y="210" width="20" height="20" as="geometry" />
        </mxCell>
        <mxCell id="GkxkM57QEwcgZs1372AV-398" value="" style="ellipse;whiteSpace=wrap;html=1;aspect=fixed;rounded=0;" vertex="1" parent="1">
          <mxGeometry x="480" y="250" width="20" height="20" as="geometry" />
        </mxCell>
        <mxCell id="GkxkM57QEwcgZs1372AV-399" value="" style="ellipse;whiteSpace=wrap;html=1;aspect=fixed;rounded=0;" vertex="1" parent="1">
          <mxGeometry x="480" y="290" width="20" height="20" as="geometry" />
        </mxCell>
        <mxCell id="GkxkM57QEwcgZs1372AV-400" value="" style="ellipse;whiteSpace=wrap;html=1;aspect=fixed;fillColor=#000000;strokeWidth=0;rounded=0;" vertex="1" parent="1">
          <mxGeometry x="488" y="326" width="4" height="4" as="geometry" />
        </mxCell>
        <mxCell id="GkxkM57QEwcgZs1372AV-401" value="" style="ellipse;whiteSpace=wrap;html=1;aspect=fixed;fillColor=#000000;strokeWidth=0;rounded=0;" vertex="1" parent="1">
          <mxGeometry x="488" y="336" width="4" height="4" as="geometry" />
        </mxCell>
      </root>
    </mxGraphModel>
  </diagram>
</mxfile>
